%TF.GenerationSoftware,KiCad,Pcbnew,7.0.8*%
%TF.CreationDate,2023-10-28T09:33:15-07:00*%
%TF.ProjectId,lab2 KiCad,6c616232-204b-4694-9361-642e6b696361,rev?*%
%TF.SameCoordinates,Original*%
%TF.FileFunction,Legend,Top*%
%TF.FilePolarity,Positive*%
%FSLAX46Y46*%
G04 Gerber Fmt 4.6, Leading zero omitted, Abs format (unit mm)*
G04 Created by KiCad (PCBNEW 7.0.8) date 2023-10-28 09:33:15*
%MOMM*%
%LPD*%
G01*
G04 APERTURE LIST*
%ADD10C,0.150000*%
%ADD11C,0.120000*%
G04 APERTURE END LIST*
D10*
X170516779Y-126869819D02*
X170516779Y-125869819D01*
X170516779Y-125869819D02*
X170850112Y-126584104D01*
X170850112Y-126584104D02*
X171183445Y-125869819D01*
X171183445Y-125869819D02*
X171183445Y-126869819D01*
X172088207Y-126869819D02*
X172088207Y-126346009D01*
X172088207Y-126346009D02*
X172040588Y-126250771D01*
X172040588Y-126250771D02*
X171945350Y-126203152D01*
X171945350Y-126203152D02*
X171754874Y-126203152D01*
X171754874Y-126203152D02*
X171659636Y-126250771D01*
X172088207Y-126822200D02*
X171992969Y-126869819D01*
X171992969Y-126869819D02*
X171754874Y-126869819D01*
X171754874Y-126869819D02*
X171659636Y-126822200D01*
X171659636Y-126822200D02*
X171612017Y-126726961D01*
X171612017Y-126726961D02*
X171612017Y-126631723D01*
X171612017Y-126631723D02*
X171659636Y-126536485D01*
X171659636Y-126536485D02*
X171754874Y-126488866D01*
X171754874Y-126488866D02*
X171992969Y-126488866D01*
X171992969Y-126488866D02*
X172088207Y-126441247D01*
X172564398Y-126869819D02*
X172564398Y-126203152D01*
X172564398Y-126393628D02*
X172612017Y-126298390D01*
X172612017Y-126298390D02*
X172659636Y-126250771D01*
X172659636Y-126250771D02*
X172754874Y-126203152D01*
X172754874Y-126203152D02*
X172850112Y-126203152D01*
X173612017Y-126822200D02*
X173516779Y-126869819D01*
X173516779Y-126869819D02*
X173326303Y-126869819D01*
X173326303Y-126869819D02*
X173231065Y-126822200D01*
X173231065Y-126822200D02*
X173183446Y-126774580D01*
X173183446Y-126774580D02*
X173135827Y-126679342D01*
X173135827Y-126679342D02*
X173135827Y-126393628D01*
X173135827Y-126393628D02*
X173183446Y-126298390D01*
X173183446Y-126298390D02*
X173231065Y-126250771D01*
X173231065Y-126250771D02*
X173326303Y-126203152D01*
X173326303Y-126203152D02*
X173516779Y-126203152D01*
X173516779Y-126203152D02*
X173612017Y-126250771D01*
X174183446Y-126869819D02*
X174088208Y-126822200D01*
X174088208Y-126822200D02*
X174040589Y-126774580D01*
X174040589Y-126774580D02*
X173992970Y-126679342D01*
X173992970Y-126679342D02*
X173992970Y-126393628D01*
X173992970Y-126393628D02*
X174040589Y-126298390D01*
X174040589Y-126298390D02*
X174088208Y-126250771D01*
X174088208Y-126250771D02*
X174183446Y-126203152D01*
X174183446Y-126203152D02*
X174326303Y-126203152D01*
X174326303Y-126203152D02*
X174421541Y-126250771D01*
X174421541Y-126250771D02*
X174469160Y-126298390D01*
X174469160Y-126298390D02*
X174516779Y-126393628D01*
X174516779Y-126393628D02*
X174516779Y-126679342D01*
X174516779Y-126679342D02*
X174469160Y-126774580D01*
X174469160Y-126774580D02*
X174421541Y-126822200D01*
X174421541Y-126822200D02*
X174326303Y-126869819D01*
X174326303Y-126869819D02*
X174183446Y-126869819D01*
X174992970Y-126822200D02*
X174992970Y-126869819D01*
X174992970Y-126869819D02*
X174945351Y-126965057D01*
X174945351Y-126965057D02*
X174897732Y-127012676D01*
X176183446Y-126869819D02*
X176183446Y-125869819D01*
X176183446Y-125869819D02*
X176754874Y-126869819D01*
X176754874Y-126869819D02*
X176754874Y-125869819D01*
X177659636Y-126869819D02*
X177659636Y-126346009D01*
X177659636Y-126346009D02*
X177612017Y-126250771D01*
X177612017Y-126250771D02*
X177516779Y-126203152D01*
X177516779Y-126203152D02*
X177326303Y-126203152D01*
X177326303Y-126203152D02*
X177231065Y-126250771D01*
X177659636Y-126822200D02*
X177564398Y-126869819D01*
X177564398Y-126869819D02*
X177326303Y-126869819D01*
X177326303Y-126869819D02*
X177231065Y-126822200D01*
X177231065Y-126822200D02*
X177183446Y-126726961D01*
X177183446Y-126726961D02*
X177183446Y-126631723D01*
X177183446Y-126631723D02*
X177231065Y-126536485D01*
X177231065Y-126536485D02*
X177326303Y-126488866D01*
X177326303Y-126488866D02*
X177564398Y-126488866D01*
X177564398Y-126488866D02*
X177659636Y-126441247D01*
X177992970Y-126203152D02*
X178373922Y-126203152D01*
X178135827Y-125869819D02*
X178135827Y-126726961D01*
X178135827Y-126726961D02*
X178183446Y-126822200D01*
X178183446Y-126822200D02*
X178278684Y-126869819D01*
X178278684Y-126869819D02*
X178373922Y-126869819D01*
X178707256Y-126869819D02*
X178707256Y-125869819D01*
X179135827Y-126869819D02*
X179135827Y-126346009D01*
X179135827Y-126346009D02*
X179088208Y-126250771D01*
X179088208Y-126250771D02*
X178992970Y-126203152D01*
X178992970Y-126203152D02*
X178850113Y-126203152D01*
X178850113Y-126203152D02*
X178754875Y-126250771D01*
X178754875Y-126250771D02*
X178707256Y-126298390D01*
X180040589Y-126869819D02*
X180040589Y-126346009D01*
X180040589Y-126346009D02*
X179992970Y-126250771D01*
X179992970Y-126250771D02*
X179897732Y-126203152D01*
X179897732Y-126203152D02*
X179707256Y-126203152D01*
X179707256Y-126203152D02*
X179612018Y-126250771D01*
X180040589Y-126822200D02*
X179945351Y-126869819D01*
X179945351Y-126869819D02*
X179707256Y-126869819D01*
X179707256Y-126869819D02*
X179612018Y-126822200D01*
X179612018Y-126822200D02*
X179564399Y-126726961D01*
X179564399Y-126726961D02*
X179564399Y-126631723D01*
X179564399Y-126631723D02*
X179612018Y-126536485D01*
X179612018Y-126536485D02*
X179707256Y-126488866D01*
X179707256Y-126488866D02*
X179945351Y-126488866D01*
X179945351Y-126488866D02*
X180040589Y-126441247D01*
X180516780Y-126203152D02*
X180516780Y-126869819D01*
X180516780Y-126298390D02*
X180564399Y-126250771D01*
X180564399Y-126250771D02*
X180659637Y-126203152D01*
X180659637Y-126203152D02*
X180802494Y-126203152D01*
X180802494Y-126203152D02*
X180897732Y-126250771D01*
X180897732Y-126250771D02*
X180945351Y-126346009D01*
X180945351Y-126346009D02*
X180945351Y-126869819D01*
X181469161Y-126822200D02*
X181469161Y-126869819D01*
X181469161Y-126869819D02*
X181421542Y-126965057D01*
X181421542Y-126965057D02*
X181373923Y-127012676D01*
X182659637Y-126869819D02*
X182659637Y-125869819D01*
X182659637Y-125869819D02*
X183231065Y-126869819D01*
X183231065Y-126869819D02*
X183231065Y-125869819D01*
X184135827Y-126203152D02*
X184135827Y-127012676D01*
X184135827Y-127012676D02*
X184088208Y-127107914D01*
X184088208Y-127107914D02*
X184040589Y-127155533D01*
X184040589Y-127155533D02*
X183945351Y-127203152D01*
X183945351Y-127203152D02*
X183802494Y-127203152D01*
X183802494Y-127203152D02*
X183707256Y-127155533D01*
X184135827Y-126822200D02*
X184040589Y-126869819D01*
X184040589Y-126869819D02*
X183850113Y-126869819D01*
X183850113Y-126869819D02*
X183754875Y-126822200D01*
X183754875Y-126822200D02*
X183707256Y-126774580D01*
X183707256Y-126774580D02*
X183659637Y-126679342D01*
X183659637Y-126679342D02*
X183659637Y-126393628D01*
X183659637Y-126393628D02*
X183707256Y-126298390D01*
X183707256Y-126298390D02*
X183754875Y-126250771D01*
X183754875Y-126250771D02*
X183850113Y-126203152D01*
X183850113Y-126203152D02*
X184040589Y-126203152D01*
X184040589Y-126203152D02*
X184135827Y-126250771D01*
X184612018Y-126869819D02*
X184612018Y-125869819D01*
X185040589Y-126869819D02*
X185040589Y-126346009D01*
X185040589Y-126346009D02*
X184992970Y-126250771D01*
X184992970Y-126250771D02*
X184897732Y-126203152D01*
X184897732Y-126203152D02*
X184754875Y-126203152D01*
X184754875Y-126203152D02*
X184659637Y-126250771D01*
X184659637Y-126250771D02*
X184612018Y-126298390D01*
X185516780Y-126869819D02*
X185516780Y-126203152D01*
X185516780Y-125869819D02*
X185469161Y-125917438D01*
X185469161Y-125917438D02*
X185516780Y-125965057D01*
X185516780Y-125965057D02*
X185564399Y-125917438D01*
X185564399Y-125917438D02*
X185516780Y-125869819D01*
X185516780Y-125869819D02*
X185516780Y-125965057D01*
X186040589Y-126822200D02*
X186040589Y-126869819D01*
X186040589Y-126869819D02*
X185992970Y-126965057D01*
X185992970Y-126965057D02*
X185945351Y-127012676D01*
X187516779Y-125869819D02*
X187516779Y-126584104D01*
X187516779Y-126584104D02*
X187469160Y-126726961D01*
X187469160Y-126726961D02*
X187373922Y-126822200D01*
X187373922Y-126822200D02*
X187231065Y-126869819D01*
X187231065Y-126869819D02*
X187135827Y-126869819D01*
X188135827Y-126869819D02*
X188040589Y-126822200D01*
X188040589Y-126822200D02*
X187992970Y-126774580D01*
X187992970Y-126774580D02*
X187945351Y-126679342D01*
X187945351Y-126679342D02*
X187945351Y-126393628D01*
X187945351Y-126393628D02*
X187992970Y-126298390D01*
X187992970Y-126298390D02*
X188040589Y-126250771D01*
X188040589Y-126250771D02*
X188135827Y-126203152D01*
X188135827Y-126203152D02*
X188278684Y-126203152D01*
X188278684Y-126203152D02*
X188373922Y-126250771D01*
X188373922Y-126250771D02*
X188421541Y-126298390D01*
X188421541Y-126298390D02*
X188469160Y-126393628D01*
X188469160Y-126393628D02*
X188469160Y-126679342D01*
X188469160Y-126679342D02*
X188421541Y-126774580D01*
X188421541Y-126774580D02*
X188373922Y-126822200D01*
X188373922Y-126822200D02*
X188278684Y-126869819D01*
X188278684Y-126869819D02*
X188135827Y-126869819D01*
X188897732Y-126203152D02*
X188897732Y-126869819D01*
X188897732Y-126298390D02*
X188945351Y-126250771D01*
X188945351Y-126250771D02*
X189040589Y-126203152D01*
X189040589Y-126203152D02*
X189183446Y-126203152D01*
X189183446Y-126203152D02*
X189278684Y-126250771D01*
X189278684Y-126250771D02*
X189326303Y-126346009D01*
X189326303Y-126346009D02*
X189326303Y-126869819D01*
X190231065Y-126869819D02*
X190231065Y-126346009D01*
X190231065Y-126346009D02*
X190183446Y-126250771D01*
X190183446Y-126250771D02*
X190088208Y-126203152D01*
X190088208Y-126203152D02*
X189897732Y-126203152D01*
X189897732Y-126203152D02*
X189802494Y-126250771D01*
X190231065Y-126822200D02*
X190135827Y-126869819D01*
X190135827Y-126869819D02*
X189897732Y-126869819D01*
X189897732Y-126869819D02*
X189802494Y-126822200D01*
X189802494Y-126822200D02*
X189754875Y-126726961D01*
X189754875Y-126726961D02*
X189754875Y-126631723D01*
X189754875Y-126631723D02*
X189802494Y-126536485D01*
X189802494Y-126536485D02*
X189897732Y-126488866D01*
X189897732Y-126488866D02*
X190135827Y-126488866D01*
X190135827Y-126488866D02*
X190231065Y-126441247D01*
X190659637Y-126822200D02*
X190754875Y-126869819D01*
X190754875Y-126869819D02*
X190945351Y-126869819D01*
X190945351Y-126869819D02*
X191040589Y-126822200D01*
X191040589Y-126822200D02*
X191088208Y-126726961D01*
X191088208Y-126726961D02*
X191088208Y-126679342D01*
X191088208Y-126679342D02*
X191040589Y-126584104D01*
X191040589Y-126584104D02*
X190945351Y-126536485D01*
X190945351Y-126536485D02*
X190802494Y-126536485D01*
X190802494Y-126536485D02*
X190707256Y-126488866D01*
X190707256Y-126488866D02*
X190659637Y-126393628D01*
X190659637Y-126393628D02*
X190659637Y-126346009D01*
X190659637Y-126346009D02*
X190707256Y-126250771D01*
X190707256Y-126250771D02*
X190802494Y-126203152D01*
X190802494Y-126203152D02*
X190945351Y-126203152D01*
X190945351Y-126203152D02*
X191040589Y-126250771D01*
X161364819Y-106846666D02*
X160888628Y-107179999D01*
X161364819Y-107418094D02*
X160364819Y-107418094D01*
X160364819Y-107418094D02*
X160364819Y-107037142D01*
X160364819Y-107037142D02*
X160412438Y-106941904D01*
X160412438Y-106941904D02*
X160460057Y-106894285D01*
X160460057Y-106894285D02*
X160555295Y-106846666D01*
X160555295Y-106846666D02*
X160698152Y-106846666D01*
X160698152Y-106846666D02*
X160793390Y-106894285D01*
X160793390Y-106894285D02*
X160841009Y-106941904D01*
X160841009Y-106941904D02*
X160888628Y-107037142D01*
X160888628Y-107037142D02*
X160888628Y-107418094D01*
X160460057Y-106465713D02*
X160412438Y-106418094D01*
X160412438Y-106418094D02*
X160364819Y-106322856D01*
X160364819Y-106322856D02*
X160364819Y-106084761D01*
X160364819Y-106084761D02*
X160412438Y-105989523D01*
X160412438Y-105989523D02*
X160460057Y-105941904D01*
X160460057Y-105941904D02*
X160555295Y-105894285D01*
X160555295Y-105894285D02*
X160650533Y-105894285D01*
X160650533Y-105894285D02*
X160793390Y-105941904D01*
X160793390Y-105941904D02*
X161364819Y-106513332D01*
X161364819Y-106513332D02*
X161364819Y-105894285D01*
X184681905Y-96254819D02*
X184681905Y-95254819D01*
X184681905Y-95254819D02*
X184920000Y-95254819D01*
X184920000Y-95254819D02*
X185062857Y-95302438D01*
X185062857Y-95302438D02*
X185158095Y-95397676D01*
X185158095Y-95397676D02*
X185205714Y-95492914D01*
X185205714Y-95492914D02*
X185253333Y-95683390D01*
X185253333Y-95683390D02*
X185253333Y-95826247D01*
X185253333Y-95826247D02*
X185205714Y-96016723D01*
X185205714Y-96016723D02*
X185158095Y-96111961D01*
X185158095Y-96111961D02*
X185062857Y-96207200D01*
X185062857Y-96207200D02*
X184920000Y-96254819D01*
X184920000Y-96254819D02*
X184681905Y-96254819D01*
X186205714Y-96254819D02*
X185634286Y-96254819D01*
X185920000Y-96254819D02*
X185920000Y-95254819D01*
X185920000Y-95254819D02*
X185824762Y-95397676D01*
X185824762Y-95397676D02*
X185729524Y-95492914D01*
X185729524Y-95492914D02*
X185634286Y-95540533D01*
X180148095Y-111324819D02*
X180148095Y-112134342D01*
X180148095Y-112134342D02*
X180195714Y-112229580D01*
X180195714Y-112229580D02*
X180243333Y-112277200D01*
X180243333Y-112277200D02*
X180338571Y-112324819D01*
X180338571Y-112324819D02*
X180529047Y-112324819D01*
X180529047Y-112324819D02*
X180624285Y-112277200D01*
X180624285Y-112277200D02*
X180671904Y-112229580D01*
X180671904Y-112229580D02*
X180719523Y-112134342D01*
X180719523Y-112134342D02*
X180719523Y-111324819D01*
X181719523Y-112324819D02*
X181148095Y-112324819D01*
X181433809Y-112324819D02*
X181433809Y-111324819D01*
X181433809Y-111324819D02*
X181338571Y-111467676D01*
X181338571Y-111467676D02*
X181243333Y-111562914D01*
X181243333Y-111562914D02*
X181148095Y-111610533D01*
X182379580Y-123589166D02*
X182427200Y-123636785D01*
X182427200Y-123636785D02*
X182474819Y-123779642D01*
X182474819Y-123779642D02*
X182474819Y-123874880D01*
X182474819Y-123874880D02*
X182427200Y-124017737D01*
X182427200Y-124017737D02*
X182331961Y-124112975D01*
X182331961Y-124112975D02*
X182236723Y-124160594D01*
X182236723Y-124160594D02*
X182046247Y-124208213D01*
X182046247Y-124208213D02*
X181903390Y-124208213D01*
X181903390Y-124208213D02*
X181712914Y-124160594D01*
X181712914Y-124160594D02*
X181617676Y-124112975D01*
X181617676Y-124112975D02*
X181522438Y-124017737D01*
X181522438Y-124017737D02*
X181474819Y-123874880D01*
X181474819Y-123874880D02*
X181474819Y-123779642D01*
X181474819Y-123779642D02*
X181522438Y-123636785D01*
X181522438Y-123636785D02*
X181570057Y-123589166D01*
X181570057Y-123208213D02*
X181522438Y-123160594D01*
X181522438Y-123160594D02*
X181474819Y-123065356D01*
X181474819Y-123065356D02*
X181474819Y-122827261D01*
X181474819Y-122827261D02*
X181522438Y-122732023D01*
X181522438Y-122732023D02*
X181570057Y-122684404D01*
X181570057Y-122684404D02*
X181665295Y-122636785D01*
X181665295Y-122636785D02*
X181760533Y-122636785D01*
X181760533Y-122636785D02*
X181903390Y-122684404D01*
X181903390Y-122684404D02*
X182474819Y-123255832D01*
X182474819Y-123255832D02*
X182474819Y-122636785D01*
X161490819Y-111926666D02*
X161014628Y-112259999D01*
X161490819Y-112498094D02*
X160490819Y-112498094D01*
X160490819Y-112498094D02*
X160490819Y-112117142D01*
X160490819Y-112117142D02*
X160538438Y-112021904D01*
X160538438Y-112021904D02*
X160586057Y-111974285D01*
X160586057Y-111974285D02*
X160681295Y-111926666D01*
X160681295Y-111926666D02*
X160824152Y-111926666D01*
X160824152Y-111926666D02*
X160919390Y-111974285D01*
X160919390Y-111974285D02*
X160967009Y-112021904D01*
X160967009Y-112021904D02*
X161014628Y-112117142D01*
X161014628Y-112117142D02*
X161014628Y-112498094D01*
X161490819Y-110974285D02*
X161490819Y-111545713D01*
X161490819Y-111259999D02*
X160490819Y-111259999D01*
X160490819Y-111259999D02*
X160633676Y-111355237D01*
X160633676Y-111355237D02*
X160728914Y-111450475D01*
X160728914Y-111450475D02*
X160776533Y-111545713D01*
X197854819Y-112498094D02*
X196854819Y-112498094D01*
X196854819Y-112498094D02*
X196854819Y-112259999D01*
X196854819Y-112259999D02*
X196902438Y-112117142D01*
X196902438Y-112117142D02*
X196997676Y-112021904D01*
X196997676Y-112021904D02*
X197092914Y-111974285D01*
X197092914Y-111974285D02*
X197283390Y-111926666D01*
X197283390Y-111926666D02*
X197426247Y-111926666D01*
X197426247Y-111926666D02*
X197616723Y-111974285D01*
X197616723Y-111974285D02*
X197711961Y-112021904D01*
X197711961Y-112021904D02*
X197807200Y-112117142D01*
X197807200Y-112117142D02*
X197854819Y-112259999D01*
X197854819Y-112259999D02*
X197854819Y-112498094D01*
X196950057Y-111545713D02*
X196902438Y-111498094D01*
X196902438Y-111498094D02*
X196854819Y-111402856D01*
X196854819Y-111402856D02*
X196854819Y-111164761D01*
X196854819Y-111164761D02*
X196902438Y-111069523D01*
X196902438Y-111069523D02*
X196950057Y-111021904D01*
X196950057Y-111021904D02*
X197045295Y-110974285D01*
X197045295Y-110974285D02*
X197140533Y-110974285D01*
X197140533Y-110974285D02*
X197283390Y-111021904D01*
X197283390Y-111021904D02*
X197854819Y-111593332D01*
X197854819Y-111593332D02*
X197854819Y-110974285D01*
X168830666Y-99530819D02*
X168830666Y-100245104D01*
X168830666Y-100245104D02*
X168783047Y-100387961D01*
X168783047Y-100387961D02*
X168687809Y-100483200D01*
X168687809Y-100483200D02*
X168544952Y-100530819D01*
X168544952Y-100530819D02*
X168449714Y-100530819D01*
X169830666Y-100530819D02*
X169259238Y-100530819D01*
X169544952Y-100530819D02*
X169544952Y-99530819D01*
X169544952Y-99530819D02*
X169449714Y-99673676D01*
X169449714Y-99673676D02*
X169354476Y-99768914D01*
X169354476Y-99768914D02*
X169259238Y-99816533D01*
X194413333Y-92784819D02*
X194080000Y-92308628D01*
X193841905Y-92784819D02*
X193841905Y-91784819D01*
X193841905Y-91784819D02*
X194222857Y-91784819D01*
X194222857Y-91784819D02*
X194318095Y-91832438D01*
X194318095Y-91832438D02*
X194365714Y-91880057D01*
X194365714Y-91880057D02*
X194413333Y-91975295D01*
X194413333Y-91975295D02*
X194413333Y-92118152D01*
X194413333Y-92118152D02*
X194365714Y-92213390D01*
X194365714Y-92213390D02*
X194318095Y-92261009D01*
X194318095Y-92261009D02*
X194222857Y-92308628D01*
X194222857Y-92308628D02*
X193841905Y-92308628D01*
X194746667Y-91784819D02*
X195365714Y-91784819D01*
X195365714Y-91784819D02*
X195032381Y-92165771D01*
X195032381Y-92165771D02*
X195175238Y-92165771D01*
X195175238Y-92165771D02*
X195270476Y-92213390D01*
X195270476Y-92213390D02*
X195318095Y-92261009D01*
X195318095Y-92261009D02*
X195365714Y-92356247D01*
X195365714Y-92356247D02*
X195365714Y-92594342D01*
X195365714Y-92594342D02*
X195318095Y-92689580D01*
X195318095Y-92689580D02*
X195270476Y-92737200D01*
X195270476Y-92737200D02*
X195175238Y-92784819D01*
X195175238Y-92784819D02*
X194889524Y-92784819D01*
X194889524Y-92784819D02*
X194794286Y-92737200D01*
X194794286Y-92737200D02*
X194746667Y-92689580D01*
X161169580Y-96686666D02*
X161217200Y-96734285D01*
X161217200Y-96734285D02*
X161264819Y-96877142D01*
X161264819Y-96877142D02*
X161264819Y-96972380D01*
X161264819Y-96972380D02*
X161217200Y-97115237D01*
X161217200Y-97115237D02*
X161121961Y-97210475D01*
X161121961Y-97210475D02*
X161026723Y-97258094D01*
X161026723Y-97258094D02*
X160836247Y-97305713D01*
X160836247Y-97305713D02*
X160693390Y-97305713D01*
X160693390Y-97305713D02*
X160502914Y-97258094D01*
X160502914Y-97258094D02*
X160407676Y-97210475D01*
X160407676Y-97210475D02*
X160312438Y-97115237D01*
X160312438Y-97115237D02*
X160264819Y-96972380D01*
X160264819Y-96972380D02*
X160264819Y-96877142D01*
X160264819Y-96877142D02*
X160312438Y-96734285D01*
X160312438Y-96734285D02*
X160360057Y-96686666D01*
X161264819Y-95734285D02*
X161264819Y-96305713D01*
X161264819Y-96019999D02*
X160264819Y-96019999D01*
X160264819Y-96019999D02*
X160407676Y-96115237D01*
X160407676Y-96115237D02*
X160502914Y-96210475D01*
X160502914Y-96210475D02*
X160550533Y-96305713D01*
X194413333Y-97864819D02*
X194080000Y-97388628D01*
X193841905Y-97864819D02*
X193841905Y-96864819D01*
X193841905Y-96864819D02*
X194222857Y-96864819D01*
X194222857Y-96864819D02*
X194318095Y-96912438D01*
X194318095Y-96912438D02*
X194365714Y-96960057D01*
X194365714Y-96960057D02*
X194413333Y-97055295D01*
X194413333Y-97055295D02*
X194413333Y-97198152D01*
X194413333Y-97198152D02*
X194365714Y-97293390D01*
X194365714Y-97293390D02*
X194318095Y-97341009D01*
X194318095Y-97341009D02*
X194222857Y-97388628D01*
X194222857Y-97388628D02*
X193841905Y-97388628D01*
X195270476Y-97198152D02*
X195270476Y-97864819D01*
X195032381Y-96817200D02*
X194794286Y-97531485D01*
X194794286Y-97531485D02*
X195413333Y-97531485D01*
D11*
%TO.C,R2*%
X161825000Y-106907064D02*
X161825000Y-106452936D01*
X163295000Y-106907064D02*
X163295000Y-106452936D01*
%TO.C,D1*%
X187880000Y-95115000D02*
X187880000Y-92845000D01*
X187880000Y-92845000D02*
X183820000Y-92845000D01*
X183820000Y-95115000D02*
X187880000Y-95115000D01*
%TO.C,U1*%
X180910000Y-111030000D02*
X184360000Y-111030000D01*
X180910000Y-111030000D02*
X178960000Y-111030000D01*
X180910000Y-105910000D02*
X182860000Y-105910000D01*
X180910000Y-105910000D02*
X178960000Y-105910000D01*
%TO.C,C2*%
X181075000Y-123161248D02*
X181075000Y-123683752D01*
X179605000Y-123161248D02*
X179605000Y-123683752D01*
%TO.C,R1*%
X161825000Y-111987064D02*
X161825000Y-111532936D01*
X163295000Y-111987064D02*
X163295000Y-111532936D01*
%TO.C,D2*%
X196715000Y-109300000D02*
X194445000Y-109300000D01*
X194445000Y-109300000D02*
X194445000Y-113360000D01*
X196715000Y-113360000D02*
X196715000Y-109300000D01*
%TO.C,J1*%
X167610000Y-89710000D02*
X175330000Y-89710000D01*
X167610000Y-90930000D02*
X168830000Y-90930000D01*
X167610000Y-98130000D02*
X167610000Y-89710000D01*
X168830000Y-90930000D02*
X168830000Y-95930000D01*
X168830000Y-94930000D02*
X174110000Y-94930000D01*
X168830000Y-95930000D02*
X167610000Y-95930000D01*
X168830000Y-95930000D02*
X168830000Y-98130000D01*
X168830000Y-98130000D02*
X167610000Y-98130000D01*
X169900000Y-91510000D02*
X170220000Y-91430000D01*
X169900000Y-94930000D02*
X169900000Y-91510000D01*
X169920000Y-98620000D02*
X170520000Y-98620000D01*
X170220000Y-91430000D02*
X170540000Y-91510000D01*
X170220000Y-94930000D02*
X169900000Y-94930000D01*
X170220000Y-98020000D02*
X169920000Y-98620000D01*
X170520000Y-98620000D02*
X170220000Y-98020000D01*
X170540000Y-91510000D02*
X170540000Y-94930000D01*
X170540000Y-94930000D02*
X170220000Y-94930000D01*
X171390000Y-95930000D02*
X171550000Y-95930000D01*
X172400000Y-91510000D02*
X172720000Y-91430000D01*
X172400000Y-94930000D02*
X172400000Y-91510000D01*
X172720000Y-91430000D02*
X173040000Y-91510000D01*
X172720000Y-94930000D02*
X172400000Y-94930000D01*
X173040000Y-91510000D02*
X173040000Y-94930000D01*
X173040000Y-94930000D02*
X172720000Y-94930000D01*
X174110000Y-90930000D02*
X174110000Y-95930000D01*
X174110000Y-95930000D02*
X175330000Y-95930000D01*
X174110000Y-98130000D02*
X174110000Y-95930000D01*
X175330000Y-89710000D02*
X175330000Y-98130000D01*
X175330000Y-90930000D02*
X174110000Y-90930000D01*
X175330000Y-98130000D02*
X174110000Y-98130000D01*
%TO.C,R3*%
X194352936Y-93245000D02*
X194807064Y-93245000D01*
X194352936Y-94715000D02*
X194807064Y-94715000D01*
%TO.C,C1*%
X161625000Y-99005000D02*
X163495000Y-99005000D01*
X163495000Y-99005000D02*
X163495000Y-94920000D01*
X161625000Y-94920000D02*
X161625000Y-99005000D01*
%TO.C,R4*%
X194352936Y-98325000D02*
X194807064Y-98325000D01*
X194352936Y-99795000D02*
X194807064Y-99795000D01*
%TD*%
M02*
