%TF.GenerationSoftware,KiCad,Pcbnew,7.0.8*%
%TF.CreationDate,2023-10-12T16:47:57-07:00*%
%TF.ProjectId,lab2 KiCad,6c616232-204b-4694-9361-642e6b696361,rev?*%
%TF.SameCoordinates,Original*%
%TF.FileFunction,Copper,L1,Top*%
%TF.FilePolarity,Positive*%
%FSLAX46Y46*%
G04 Gerber Fmt 4.6, Leading zero omitted, Abs format (unit mm)*
G04 Created by KiCad (PCBNEW 7.0.8) date 2023-10-12 16:47:57*
%MOMM*%
%LPD*%
G01*
G04 APERTURE LIST*
G04 Aperture macros list*
%AMRoundRect*
0 Rectangle with rounded corners*
0 $1 Rounding radius*
0 $2 $3 $4 $5 $6 $7 $8 $9 X,Y pos of 4 corners*
0 Add a 4 corners polygon primitive as box body*
4,1,4,$2,$3,$4,$5,$6,$7,$8,$9,$2,$3,0*
0 Add four circle primitives for the rounded corners*
1,1,$1+$1,$2,$3*
1,1,$1+$1,$4,$5*
1,1,$1+$1,$6,$7*
1,1,$1+$1,$8,$9*
0 Add four rect primitives between the rounded corners*
20,1,$1+$1,$2,$3,$4,$5,0*
20,1,$1+$1,$4,$5,$6,$7,0*
20,1,$1+$1,$6,$7,$8,$9,0*
20,1,$1+$1,$8,$9,$2,$3,0*%
G04 Aperture macros list end*
%TA.AperFunction,SMDPad,CuDef*%
%ADD10RoundRect,0.150000X0.825000X0.150000X-0.825000X0.150000X-0.825000X-0.150000X0.825000X-0.150000X0*%
%TD*%
%TA.AperFunction,SMDPad,CuDef*%
%ADD11R,2.290000X3.000000*%
%TD*%
%TA.AperFunction,SMDPad,CuDef*%
%ADD12RoundRect,0.250000X-0.350000X-0.450000X0.350000X-0.450000X0.350000X0.450000X-0.350000X0.450000X0*%
%TD*%
%TA.AperFunction,SMDPad,CuDef*%
%ADD13RoundRect,0.250000X0.450000X-0.350000X0.450000X0.350000X-0.450000X0.350000X-0.450000X-0.350000X0*%
%TD*%
%TA.AperFunction,ComponentPad*%
%ADD14RoundRect,0.250000X0.600000X0.750000X-0.600000X0.750000X-0.600000X-0.750000X0.600000X-0.750000X0*%
%TD*%
%TA.AperFunction,ComponentPad*%
%ADD15O,1.700000X2.000000*%
%TD*%
%TA.AperFunction,SMDPad,CuDef*%
%ADD16RoundRect,0.250001X-0.624999X0.462499X-0.624999X-0.462499X0.624999X-0.462499X0.624999X0.462499X0*%
%TD*%
%TA.AperFunction,SMDPad,CuDef*%
%ADD17RoundRect,0.250001X0.462499X0.624999X-0.462499X0.624999X-0.462499X-0.624999X0.462499X-0.624999X0*%
%TD*%
%TA.AperFunction,SMDPad,CuDef*%
%ADD18RoundRect,0.250000X-0.475000X0.337500X-0.475000X-0.337500X0.475000X-0.337500X0.475000X0.337500X0*%
%TD*%
%TA.AperFunction,SMDPad,CuDef*%
%ADD19RoundRect,0.250000X0.425000X-0.537500X0.425000X0.537500X-0.425000X0.537500X-0.425000X-0.537500X0*%
%TD*%
%TA.AperFunction,ViaPad*%
%ADD20C,0.800000*%
%TD*%
%TA.AperFunction,Conductor*%
%ADD21C,0.500000*%
%TD*%
%TA.AperFunction,Conductor*%
%ADD22C,0.250000*%
%TD*%
%ADD23C,0.150000*%
%ADD24C,0.120000*%
%TA.AperFunction,Profile*%
%ADD25C,0.100000*%
%TD*%
G04 APERTURE END LIST*
D10*
%TO.P,U1,1,GND*%
%TO.N,GND*%
X183385000Y-110375000D03*
%TO.P,U1,2,TR*%
%TO.N,/pin_2*%
X183385000Y-109105000D03*
%TO.P,U1,3,Q*%
%TO.N,/pin_3*%
X183385000Y-107835000D03*
%TO.P,U1,4,R*%
%TO.N,+9V*%
X183385000Y-106565000D03*
%TO.P,U1,5,CV*%
%TO.N,Net-(U1-CV)*%
X178435000Y-106565000D03*
%TO.P,U1,6,THR*%
%TO.N,/pin_2*%
X178435000Y-107835000D03*
%TO.P,U1,7,DIS*%
%TO.N,/pin_7*%
X178435000Y-109105000D03*
%TO.P,U1,8,VCC*%
%TO.N,+9V*%
X178435000Y-110375000D03*
D11*
%TO.P,U1,9*%
%TO.N,N/C*%
X180910000Y-108470000D03*
%TD*%
D12*
%TO.P,R4,1*%
%TO.N,/pin_3*%
X193580000Y-99060000D03*
%TO.P,R4,2*%
%TO.N,Net-(D2-A)*%
X195580000Y-99060000D03*
%TD*%
%TO.P,R3,1*%
%TO.N,Net-(D1-K)*%
X193580000Y-93980000D03*
%TO.P,R3,2*%
%TO.N,/pin_3*%
X195580000Y-93980000D03*
%TD*%
D13*
%TO.P,R2,1*%
%TO.N,/pin_7*%
X162560000Y-107680000D03*
%TO.P,R2,2*%
%TO.N,/pin_2*%
X162560000Y-105680000D03*
%TD*%
%TO.P,R1,1*%
%TO.N,+9V*%
X162560000Y-112760000D03*
%TO.P,R1,2*%
%TO.N,/pin_7*%
X162560000Y-110760000D03*
%TD*%
D14*
%TO.P,J1,1,Pin_1*%
%TO.N,+9V*%
X175260000Y-93980000D03*
D15*
%TO.P,J1,2,Pin_2*%
%TO.N,GND*%
X172760000Y-93980000D03*
%TD*%
D16*
%TO.P,D2,1,K*%
%TO.N,GND*%
X195580000Y-110272500D03*
%TO.P,D2,2,A*%
%TO.N,Net-(D2-A)*%
X195580000Y-113247500D03*
%TD*%
D17*
%TO.P,D1,1,K*%
%TO.N,Net-(D1-K)*%
X186907500Y-93980000D03*
%TO.P,D1,2,A*%
%TO.N,+9V*%
X183932500Y-93980000D03*
%TD*%
D18*
%TO.P,C2,1*%
%TO.N,Net-(U1-CV)*%
X180340000Y-122385000D03*
%TO.P,C2,2*%
%TO.N,GND*%
X180340000Y-124460000D03*
%TD*%
D19*
%TO.P,C1,1*%
%TO.N,/pin_2*%
X162560000Y-97957500D03*
%TO.P,C1,2*%
%TO.N,GND*%
X162560000Y-95082500D03*
%TD*%
D20*
%TO.N,+9V*%
X180340000Y-114300000D03*
X187960000Y-101600000D03*
%TO.N,Net-(U1-CV)*%
X172720000Y-104140000D03*
%TO.N,/pin_2*%
X175260000Y-106680000D03*
X190500000Y-109220000D03*
%TO.N,Net-(U1-CV)*%
X175260000Y-116840000D03*
%TD*%
D21*
%TO.N,+9V*%
X183932500Y-93980000D02*
X175260000Y-93980000D01*
D22*
%TO.N,GND*%
X174085000Y-92655000D02*
X195868174Y-92655000D01*
D21*
%TO.N,+9V*%
X180340000Y-114300000D02*
X180340000Y-112280000D01*
X180340000Y-112280000D02*
X178435000Y-110375000D01*
D22*
X187960000Y-101600000D02*
X187960000Y-101990000D01*
D21*
X183385000Y-106565000D02*
X187960000Y-101600000D01*
D22*
%TO.N,Net-(U1-CV)*%
X172720000Y-104140000D02*
X176010000Y-104140000D01*
X176010000Y-104140000D02*
X178435000Y-106565000D01*
%TO.N,/pin_2*%
X175260000Y-106680000D02*
X176415000Y-107835000D01*
X176415000Y-107835000D02*
X178435000Y-107835000D01*
X190500000Y-109220000D02*
X190385000Y-109105000D01*
X183385000Y-109105000D02*
X190500000Y-109220000D01*
%TO.N,/pin_7*%
X162560000Y-110760000D02*
X162560000Y-110530000D01*
X162560000Y-110530000D02*
X163985000Y-109105000D01*
%TO.N,GND*%
X172760000Y-93980000D02*
X174085000Y-92655000D01*
X195868174Y-92655000D02*
X197230000Y-94016826D01*
X197230000Y-94016826D02*
X197230000Y-113498172D01*
X197230000Y-113498172D02*
X196443172Y-114285000D01*
X196443172Y-114285000D02*
X187295000Y-114285000D01*
X187295000Y-114285000D02*
X183385000Y-110375000D01*
D21*
%TO.N,+9V*%
X162560000Y-112760000D02*
X176050000Y-112760000D01*
X176050000Y-112760000D02*
X178435000Y-110375000D01*
D22*
%TO.N,/pin_7*%
X162560000Y-107680000D02*
X163985000Y-109105000D01*
X163985000Y-109105000D02*
X178435000Y-109105000D01*
%TO.N,/pin_2*%
X162560000Y-105680000D02*
X164715000Y-107835000D01*
X164715000Y-107835000D02*
X178435000Y-107835000D01*
X162560000Y-97957500D02*
X162560000Y-105680000D01*
%TO.N,GND*%
X172760000Y-93980000D02*
X171657500Y-95082500D01*
X171657500Y-95082500D02*
X162560000Y-95082500D01*
D21*
%TO.N,+9V*%
X183932500Y-93980000D02*
X183932500Y-106017500D01*
D22*
X183932500Y-106017500D02*
X183385000Y-106565000D01*
%TO.N,Net-(D1-K)*%
X193580000Y-93980000D02*
X186907500Y-93980000D01*
%TO.N,/pin_3*%
X195580000Y-93980000D02*
X195580000Y-97060000D01*
X195580000Y-97060000D02*
X193580000Y-99060000D01*
X193580000Y-99060000D02*
X184805000Y-107835000D01*
X184805000Y-107835000D02*
X183385000Y-107835000D01*
%TO.N,Net-(D2-A)*%
X195580000Y-113247500D02*
X196780000Y-112047500D01*
X196780000Y-100260000D02*
X195580000Y-99060000D01*
X196780000Y-112047500D02*
X196780000Y-100260000D01*
%TO.N,GND*%
X195580000Y-110272500D02*
X183487500Y-110272500D01*
X183487500Y-110272500D02*
X183385000Y-110375000D01*
X180340000Y-124460000D02*
X183385000Y-121415000D01*
X183385000Y-121415000D02*
X183385000Y-110375000D01*
%TO.N,Net-(U1-CV)*%
X180340000Y-121920000D02*
X175260000Y-116840000D01*
X180340000Y-122385000D02*
X180340000Y-121920000D01*
%TD*%
%TA.AperFunction,NonConductor*%
G36*
X200602539Y-88920185D02*
G01*
X200648294Y-88972989D01*
X200659500Y-89024500D01*
X200659500Y-129415500D01*
X200639815Y-129482539D01*
X200587011Y-129528294D01*
X200535500Y-129539500D01*
X160144500Y-129539500D01*
X160077461Y-129519815D01*
X160031706Y-129467011D01*
X160020500Y-129415500D01*
X160020500Y-126975889D01*
X162559416Y-126975889D01*
X162559459Y-127000001D01*
X162559500Y-127000099D01*
X162559616Y-127000382D01*
X162559618Y-127000384D01*
X162559808Y-127000462D01*
X162560000Y-127000541D01*
X162560002Y-127000539D01*
X162584616Y-127000524D01*
X162584616Y-127000528D01*
X162584760Y-127000500D01*
X165075240Y-127000500D01*
X165075383Y-127000528D01*
X165075384Y-127000524D01*
X165099997Y-127000539D01*
X165100000Y-127000541D01*
X165100383Y-127000383D01*
X165100500Y-127000099D01*
X165100541Y-127000000D01*
X165100540Y-126999997D01*
X165100583Y-126975889D01*
X195579416Y-126975889D01*
X195579459Y-127000001D01*
X195579500Y-127000099D01*
X195579616Y-127000382D01*
X195579618Y-127000384D01*
X195579808Y-127000462D01*
X195580000Y-127000541D01*
X195580002Y-127000539D01*
X195604616Y-127000524D01*
X195604616Y-127000528D01*
X195604760Y-127000500D01*
X198095240Y-127000500D01*
X198095383Y-127000528D01*
X198095384Y-127000524D01*
X198119997Y-127000539D01*
X198120000Y-127000541D01*
X198120383Y-127000383D01*
X198120500Y-127000099D01*
X198120541Y-127000000D01*
X198120540Y-126999997D01*
X198120583Y-126975889D01*
X198120500Y-126975467D01*
X198120500Y-124484759D01*
X198120528Y-124484616D01*
X198120524Y-124484616D01*
X198120539Y-124460002D01*
X198120541Y-124460000D01*
X198120462Y-124459808D01*
X198120384Y-124459618D01*
X198120382Y-124459616D01*
X198120099Y-124459500D01*
X198120000Y-124459459D01*
X198095446Y-124459459D01*
X198095240Y-124459500D01*
X195604760Y-124459500D01*
X195604554Y-124459459D01*
X195580000Y-124459459D01*
X195579901Y-124459500D01*
X195579617Y-124459616D01*
X195579615Y-124459618D01*
X195579459Y-124459999D01*
X195579476Y-124484616D01*
X195579471Y-124484616D01*
X195579500Y-124484759D01*
X195579500Y-126975467D01*
X195579416Y-126975889D01*
X165100583Y-126975889D01*
X165100500Y-126975467D01*
X165100500Y-124484759D01*
X165100528Y-124484616D01*
X165100524Y-124484616D01*
X165100539Y-124460002D01*
X165100541Y-124460000D01*
X165100462Y-124459808D01*
X165100384Y-124459618D01*
X165100382Y-124459616D01*
X165100099Y-124459500D01*
X165100000Y-124459459D01*
X165075446Y-124459459D01*
X165075240Y-124459500D01*
X162584760Y-124459500D01*
X162584554Y-124459459D01*
X162560000Y-124459459D01*
X162559901Y-124459500D01*
X162559617Y-124459616D01*
X162559615Y-124459618D01*
X162559459Y-124459999D01*
X162559476Y-124484616D01*
X162559471Y-124484616D01*
X162559500Y-124484759D01*
X162559500Y-126975467D01*
X162559416Y-126975889D01*
X160020500Y-126975889D01*
X160020500Y-113160001D01*
X161359500Y-113160001D01*
X161359501Y-113160019D01*
X161370000Y-113262796D01*
X161370001Y-113262799D01*
X161398310Y-113348229D01*
X161425186Y-113429334D01*
X161517288Y-113578656D01*
X161641344Y-113702712D01*
X161790666Y-113794814D01*
X161957203Y-113849999D01*
X162059991Y-113860500D01*
X163060008Y-113860499D01*
X163060016Y-113860498D01*
X163060019Y-113860498D01*
X163116302Y-113854748D01*
X163162797Y-113849999D01*
X163329334Y-113794814D01*
X163478656Y-113702712D01*
X163602712Y-113578656D01*
X163608420Y-113569402D01*
X163660368Y-113522678D01*
X163713958Y-113510500D01*
X175986295Y-113510500D01*
X176004265Y-113511809D01*
X176028023Y-113515289D01*
X176080068Y-113510735D01*
X176085470Y-113510500D01*
X176093704Y-113510500D01*
X176093709Y-113510500D01*
X176105327Y-113509141D01*
X176126276Y-113506693D01*
X176139028Y-113505577D01*
X176202797Y-113499999D01*
X176202805Y-113499996D01*
X176209866Y-113498539D01*
X176209878Y-113498598D01*
X176217243Y-113496965D01*
X176217229Y-113496906D01*
X176224246Y-113495241D01*
X176224255Y-113495241D01*
X176296423Y-113468974D01*
X176369334Y-113444814D01*
X176369343Y-113444807D01*
X176375882Y-113441760D01*
X176375908Y-113441816D01*
X176382690Y-113438532D01*
X176382663Y-113438478D01*
X176389106Y-113435240D01*
X176389117Y-113435237D01*
X176453283Y-113393034D01*
X176518656Y-113352712D01*
X176518662Y-113352705D01*
X176524325Y-113348229D01*
X176524362Y-113348277D01*
X176530204Y-113343518D01*
X176530164Y-113343471D01*
X176535691Y-113338832D01*
X176535696Y-113338830D01*
X176588386Y-113282981D01*
X178347318Y-111524047D01*
X178408641Y-111490563D01*
X178478332Y-111495547D01*
X178522680Y-111524048D01*
X179553181Y-112554549D01*
X179586666Y-112615872D01*
X179589500Y-112642230D01*
X179589500Y-113765677D01*
X179572887Y-113827677D01*
X179512821Y-113931714D01*
X179490966Y-113998978D01*
X179454326Y-114111744D01*
X179434540Y-114300000D01*
X179454326Y-114488256D01*
X179454327Y-114488259D01*
X179512818Y-114668277D01*
X179512821Y-114668284D01*
X179607467Y-114832216D01*
X179734129Y-114972888D01*
X179887265Y-115084148D01*
X179887270Y-115084151D01*
X180060192Y-115161142D01*
X180060197Y-115161144D01*
X180245354Y-115200500D01*
X180245355Y-115200500D01*
X180434644Y-115200500D01*
X180434646Y-115200500D01*
X180619803Y-115161144D01*
X180792730Y-115084151D01*
X180945871Y-114972888D01*
X181072533Y-114832216D01*
X181167179Y-114668284D01*
X181225674Y-114488256D01*
X181245460Y-114300000D01*
X181225674Y-114111744D01*
X181167179Y-113931716D01*
X181151669Y-113904852D01*
X181107113Y-113827677D01*
X181090500Y-113765677D01*
X181090500Y-112343705D01*
X181091809Y-112325735D01*
X181093184Y-112316345D01*
X181095289Y-112301977D01*
X181090735Y-112249931D01*
X181090500Y-112244528D01*
X181090500Y-112236297D01*
X181090500Y-112236291D01*
X181086693Y-112203724D01*
X181079999Y-112127203D01*
X181079999Y-112127201D01*
X181078539Y-112120129D01*
X181078597Y-112120116D01*
X181076965Y-112112757D01*
X181076906Y-112112772D01*
X181075242Y-112105753D01*
X181075241Y-112105745D01*
X181048974Y-112033576D01*
X181024814Y-111960666D01*
X181024809Y-111960659D01*
X181021760Y-111954118D01*
X181021815Y-111954091D01*
X181018533Y-111947313D01*
X181018480Y-111947340D01*
X181015235Y-111940880D01*
X180973028Y-111876708D01*
X180932710Y-111811342D01*
X180928234Y-111805682D01*
X180928281Y-111805644D01*
X180923519Y-111799799D01*
X180923474Y-111799838D01*
X180918834Y-111794308D01*
X180862964Y-111741596D01*
X179923734Y-110802366D01*
X179890249Y-110741043D01*
X179892339Y-110680089D01*
X179907598Y-110627569D01*
X179910500Y-110590694D01*
X179910541Y-110589643D01*
X179932836Y-110523426D01*
X179987391Y-110479774D01*
X180034446Y-110470499D01*
X181785554Y-110470499D01*
X181852593Y-110490184D01*
X181898348Y-110542988D01*
X181909459Y-110589643D01*
X181909500Y-110590700D01*
X181912401Y-110627566D01*
X181912402Y-110627573D01*
X181958254Y-110785393D01*
X181958255Y-110785396D01*
X182041917Y-110926862D01*
X182041923Y-110926870D01*
X182158129Y-111043076D01*
X182158133Y-111043079D01*
X182158135Y-111043081D01*
X182299602Y-111126744D01*
X182341224Y-111138836D01*
X182457426Y-111172597D01*
X182457429Y-111172597D01*
X182457431Y-111172598D01*
X182469722Y-111173565D01*
X182494304Y-111175500D01*
X182494306Y-111175500D01*
X182635500Y-111175500D01*
X182702539Y-111195185D01*
X182748294Y-111247989D01*
X182759500Y-111299500D01*
X182759500Y-121104546D01*
X182739815Y-121171585D01*
X182723181Y-121192227D01*
X181777180Y-122138228D01*
X181715857Y-122171713D01*
X181646165Y-122166729D01*
X181590232Y-122124857D01*
X181565815Y-122059393D01*
X181565499Y-122050547D01*
X181565499Y-121997498D01*
X181565498Y-121997481D01*
X181554999Y-121894703D01*
X181554998Y-121894700D01*
X181533383Y-121829471D01*
X181499814Y-121728166D01*
X181407712Y-121578844D01*
X181283656Y-121454788D01*
X181134334Y-121362686D01*
X180967797Y-121307501D01*
X180967795Y-121307500D01*
X180865016Y-121297000D01*
X180865009Y-121297000D01*
X180652952Y-121297000D01*
X180585913Y-121277315D01*
X180565271Y-121260681D01*
X176198960Y-116894369D01*
X176165475Y-116833046D01*
X176163323Y-116819668D01*
X176145674Y-116651744D01*
X176087179Y-116471716D01*
X175992533Y-116307784D01*
X175865871Y-116167112D01*
X175865870Y-116167111D01*
X175712734Y-116055851D01*
X175712729Y-116055848D01*
X175539807Y-115978857D01*
X175539802Y-115978855D01*
X175394001Y-115947865D01*
X175354646Y-115939500D01*
X175165354Y-115939500D01*
X175132897Y-115946398D01*
X174980197Y-115978855D01*
X174980192Y-115978857D01*
X174807270Y-116055848D01*
X174807265Y-116055851D01*
X174654129Y-116167111D01*
X174527466Y-116307785D01*
X174432821Y-116471715D01*
X174432818Y-116471722D01*
X174374327Y-116651740D01*
X174374326Y-116651744D01*
X174354540Y-116840000D01*
X174374326Y-117028256D01*
X174374327Y-117028259D01*
X174432818Y-117208277D01*
X174432821Y-117208284D01*
X174527467Y-117372216D01*
X174654129Y-117512888D01*
X174807265Y-117624148D01*
X174807270Y-117624151D01*
X174980192Y-117701142D01*
X174980197Y-117701144D01*
X175165354Y-117740500D01*
X175224548Y-117740500D01*
X175291587Y-117760185D01*
X175312229Y-117776819D01*
X179146858Y-121611449D01*
X179180343Y-121672772D01*
X179176883Y-121738133D01*
X179148429Y-121824001D01*
X179125001Y-121894703D01*
X179125000Y-121894704D01*
X179114500Y-121997483D01*
X179114500Y-122772501D01*
X179114501Y-122772519D01*
X179125000Y-122875296D01*
X179125001Y-122875299D01*
X179180185Y-123041831D01*
X179180187Y-123041836D01*
X179272289Y-123191157D01*
X179396346Y-123315214D01*
X179399182Y-123316963D01*
X179400717Y-123318670D01*
X179402011Y-123319693D01*
X179401836Y-123319914D01*
X179445905Y-123368911D01*
X179457126Y-123437874D01*
X179429282Y-123501956D01*
X179399182Y-123528037D01*
X179396346Y-123529785D01*
X179272289Y-123653842D01*
X179180187Y-123803163D01*
X179180186Y-123803166D01*
X179125001Y-123969703D01*
X179125001Y-123969704D01*
X179125000Y-123969704D01*
X179114500Y-124072483D01*
X179114500Y-124847501D01*
X179114501Y-124847519D01*
X179125000Y-124950296D01*
X179125001Y-124950299D01*
X179180185Y-125116831D01*
X179180186Y-125116834D01*
X179272288Y-125266156D01*
X179396344Y-125390212D01*
X179545666Y-125482314D01*
X179712203Y-125537499D01*
X179814991Y-125548000D01*
X180865008Y-125547999D01*
X180865016Y-125547998D01*
X180865019Y-125547998D01*
X180921302Y-125542248D01*
X180967797Y-125537499D01*
X181134334Y-125482314D01*
X181283656Y-125390212D01*
X181407712Y-125266156D01*
X181499814Y-125116834D01*
X181554999Y-124950297D01*
X181565500Y-124847509D01*
X181565499Y-124170451D01*
X181585183Y-124103413D01*
X181601813Y-124082776D01*
X183768788Y-121915801D01*
X183781042Y-121905986D01*
X183780859Y-121905764D01*
X183786866Y-121900792D01*
X183786877Y-121900786D01*
X183817775Y-121867882D01*
X183834227Y-121850364D01*
X183844671Y-121839918D01*
X183855120Y-121829471D01*
X183859379Y-121823978D01*
X183863152Y-121819561D01*
X183895062Y-121785582D01*
X183904713Y-121768024D01*
X183915396Y-121751761D01*
X183927673Y-121735936D01*
X183946185Y-121693153D01*
X183948738Y-121687941D01*
X183971197Y-121647092D01*
X183976180Y-121627680D01*
X183982481Y-121609280D01*
X183990437Y-121590896D01*
X183997729Y-121544852D01*
X183998906Y-121539171D01*
X184010500Y-121494019D01*
X184010500Y-121473983D01*
X184012027Y-121454582D01*
X184015160Y-121434804D01*
X184010775Y-121388415D01*
X184010500Y-121382577D01*
X184010500Y-112184452D01*
X184030185Y-112117413D01*
X184082989Y-112071658D01*
X184152147Y-112061714D01*
X184215703Y-112090739D01*
X184222179Y-112096769D01*
X185518443Y-113393034D01*
X186794197Y-114668788D01*
X186804022Y-114681051D01*
X186804243Y-114680869D01*
X186809214Y-114686878D01*
X186830043Y-114706437D01*
X186859635Y-114734226D01*
X186880529Y-114755120D01*
X186886011Y-114759373D01*
X186890443Y-114763157D01*
X186924418Y-114795062D01*
X186941976Y-114804714D01*
X186958233Y-114815393D01*
X186974064Y-114827673D01*
X186993737Y-114836186D01*
X187016833Y-114846182D01*
X187022077Y-114848750D01*
X187062908Y-114871197D01*
X187075523Y-114874435D01*
X187082305Y-114876177D01*
X187100719Y-114882481D01*
X187119104Y-114890438D01*
X187165157Y-114897732D01*
X187170826Y-114898906D01*
X187215981Y-114910500D01*
X187236016Y-114910500D01*
X187255413Y-114912026D01*
X187275196Y-114915160D01*
X187321584Y-114910775D01*
X187327422Y-114910500D01*
X196360429Y-114910500D01*
X196376049Y-114912224D01*
X196376076Y-114911939D01*
X196383832Y-114912671D01*
X196383839Y-114912673D01*
X196452986Y-114910500D01*
X196482522Y-114910500D01*
X196489400Y-114909630D01*
X196495213Y-114909172D01*
X196541799Y-114907709D01*
X196561041Y-114902117D01*
X196580084Y-114898174D01*
X196599964Y-114895664D01*
X196643294Y-114878507D01*
X196648818Y-114876617D01*
X196652568Y-114875527D01*
X196693562Y-114863618D01*
X196710801Y-114853422D01*
X196728275Y-114844862D01*
X196746899Y-114837488D01*
X196746899Y-114837487D01*
X196746904Y-114837486D01*
X196784621Y-114810082D01*
X196789477Y-114806892D01*
X196829592Y-114783170D01*
X196843761Y-114768999D01*
X196858551Y-114756368D01*
X196874759Y-114744594D01*
X196904471Y-114708676D01*
X196908384Y-114704376D01*
X197613787Y-113998974D01*
X197626042Y-113989158D01*
X197625859Y-113988936D01*
X197631866Y-113983964D01*
X197631877Y-113983958D01*
X197662775Y-113951054D01*
X197679227Y-113933536D01*
X197689671Y-113923090D01*
X197700120Y-113912643D01*
X197704379Y-113907150D01*
X197708152Y-113902733D01*
X197740062Y-113868754D01*
X197749715Y-113851192D01*
X197760389Y-113834942D01*
X197772673Y-113819108D01*
X197791180Y-113776339D01*
X197793749Y-113771096D01*
X197816196Y-113730265D01*
X197816197Y-113730264D01*
X197821177Y-113710863D01*
X197827478Y-113692460D01*
X197835438Y-113674068D01*
X197842730Y-113628021D01*
X197843911Y-113622324D01*
X197855500Y-113577191D01*
X197855500Y-113557155D01*
X197857027Y-113537754D01*
X197857384Y-113535500D01*
X197860160Y-113517976D01*
X197855775Y-113471587D01*
X197855500Y-113465749D01*
X197855500Y-94099568D01*
X197857224Y-94083948D01*
X197856939Y-94083922D01*
X197857671Y-94076166D01*
X197857673Y-94076159D01*
X197855500Y-94007011D01*
X197855500Y-93977476D01*
X197854631Y-93970598D01*
X197854172Y-93964769D01*
X197852709Y-93918198D01*
X197847122Y-93898970D01*
X197843174Y-93879910D01*
X197840663Y-93860030D01*
X197823512Y-93816713D01*
X197821619Y-93811184D01*
X197808618Y-93766435D01*
X197808616Y-93766432D01*
X197798423Y-93749197D01*
X197789861Y-93731720D01*
X197782487Y-93713096D01*
X197782486Y-93713094D01*
X197755079Y-93675371D01*
X197751888Y-93670512D01*
X197728172Y-93630409D01*
X197728165Y-93630400D01*
X197714006Y-93616241D01*
X197701368Y-93601445D01*
X197696385Y-93594586D01*
X197689594Y-93585239D01*
X197653688Y-93555535D01*
X197649376Y-93551612D01*
X196368977Y-92271212D01*
X196359154Y-92258950D01*
X196358933Y-92259134D01*
X196353960Y-92253123D01*
X196335333Y-92235631D01*
X196303538Y-92205773D01*
X196293093Y-92195328D01*
X196282649Y-92184883D01*
X196277160Y-92180625D01*
X196272735Y-92176847D01*
X196238756Y-92144938D01*
X196238754Y-92144936D01*
X196238751Y-92144935D01*
X196221203Y-92135288D01*
X196204937Y-92124604D01*
X196189107Y-92112325D01*
X196146342Y-92093818D01*
X196141096Y-92091248D01*
X196100267Y-92068803D01*
X196100266Y-92068802D01*
X196080867Y-92063822D01*
X196062455Y-92057518D01*
X196044072Y-92049562D01*
X196044066Y-92049560D01*
X195998048Y-92042272D01*
X195992326Y-92041087D01*
X195947195Y-92029500D01*
X195947193Y-92029500D01*
X195927158Y-92029500D01*
X195907760Y-92027973D01*
X195900336Y-92026797D01*
X195887979Y-92024840D01*
X195887978Y-92024840D01*
X195841590Y-92029225D01*
X195835752Y-92029500D01*
X174167743Y-92029500D01*
X174152122Y-92027775D01*
X174152096Y-92028061D01*
X174144334Y-92027327D01*
X174144333Y-92027327D01*
X174075186Y-92029500D01*
X174045649Y-92029500D01*
X174038766Y-92030369D01*
X174032949Y-92030826D01*
X173986373Y-92032290D01*
X173967129Y-92037881D01*
X173948079Y-92041825D01*
X173928211Y-92044334D01*
X173884884Y-92061488D01*
X173879358Y-92063379D01*
X173834614Y-92076379D01*
X173834610Y-92076381D01*
X173817366Y-92086579D01*
X173799905Y-92095133D01*
X173781274Y-92102510D01*
X173781262Y-92102517D01*
X173743570Y-92129902D01*
X173738687Y-92133109D01*
X173698580Y-92156829D01*
X173684414Y-92170995D01*
X173669624Y-92183627D01*
X173653414Y-92195404D01*
X173653411Y-92195407D01*
X173623710Y-92231309D01*
X173619777Y-92235631D01*
X173333948Y-92521460D01*
X173272625Y-92554945D01*
X173214174Y-92553554D01*
X172995413Y-92494938D01*
X172995403Y-92494936D01*
X172760001Y-92474341D01*
X172759999Y-92474341D01*
X172524596Y-92494936D01*
X172524586Y-92494938D01*
X172296344Y-92556094D01*
X172296335Y-92556098D01*
X172082171Y-92655964D01*
X172082169Y-92655965D01*
X171888597Y-92791505D01*
X171721505Y-92958597D01*
X171585965Y-93152169D01*
X171585964Y-93152171D01*
X171486098Y-93366335D01*
X171486094Y-93366344D01*
X171424938Y-93594586D01*
X171424936Y-93594596D01*
X171409500Y-93771034D01*
X171409500Y-94188966D01*
X171421156Y-94322192D01*
X171407390Y-94390692D01*
X171358774Y-94440875D01*
X171297628Y-94457000D01*
X163836012Y-94457000D01*
X163768973Y-94437315D01*
X163723218Y-94384511D01*
X163718306Y-94372004D01*
X163701800Y-94322192D01*
X163669814Y-94225666D01*
X163577712Y-94076344D01*
X163453656Y-93952288D01*
X163304334Y-93860186D01*
X163137797Y-93805001D01*
X163137795Y-93805000D01*
X163035010Y-93794500D01*
X162084998Y-93794500D01*
X162084980Y-93794501D01*
X161982203Y-93805000D01*
X161982200Y-93805001D01*
X161815668Y-93860185D01*
X161815663Y-93860187D01*
X161666342Y-93952289D01*
X161542289Y-94076342D01*
X161450187Y-94225663D01*
X161450186Y-94225666D01*
X161395001Y-94392203D01*
X161395001Y-94392204D01*
X161395000Y-94392204D01*
X161384500Y-94494983D01*
X161384500Y-95670001D01*
X161384501Y-95670018D01*
X161395000Y-95772796D01*
X161395001Y-95772799D01*
X161401694Y-95792996D01*
X161450186Y-95939334D01*
X161542288Y-96088656D01*
X161666344Y-96212712D01*
X161815666Y-96304814D01*
X161982203Y-96359999D01*
X162084991Y-96370500D01*
X163035008Y-96370499D01*
X163035016Y-96370498D01*
X163035019Y-96370498D01*
X163091302Y-96364748D01*
X163137797Y-96359999D01*
X163304334Y-96304814D01*
X163453656Y-96212712D01*
X163577712Y-96088656D01*
X163669814Y-95939334D01*
X163718306Y-95792994D01*
X163758077Y-95735551D01*
X163822593Y-95708728D01*
X163836011Y-95708000D01*
X171574757Y-95708000D01*
X171590377Y-95709724D01*
X171590404Y-95709439D01*
X171598160Y-95710171D01*
X171598167Y-95710173D01*
X171667314Y-95708000D01*
X171696850Y-95708000D01*
X171703728Y-95707130D01*
X171709541Y-95706672D01*
X171756127Y-95705209D01*
X171775369Y-95699617D01*
X171794412Y-95695674D01*
X171814292Y-95693164D01*
X171857622Y-95676007D01*
X171863146Y-95674117D01*
X171866896Y-95673027D01*
X171907890Y-95661118D01*
X171925129Y-95650922D01*
X171942603Y-95642362D01*
X171961227Y-95634988D01*
X171961227Y-95634987D01*
X171961232Y-95634986D01*
X171998949Y-95607582D01*
X172003805Y-95604392D01*
X172043920Y-95580670D01*
X172058089Y-95566499D01*
X172072879Y-95553868D01*
X172089087Y-95542094D01*
X172118799Y-95506176D01*
X172122712Y-95501876D01*
X172186051Y-95438537D01*
X172247372Y-95405054D01*
X172305823Y-95406445D01*
X172393984Y-95430067D01*
X172524592Y-95465063D01*
X172701034Y-95480500D01*
X172759999Y-95485659D01*
X172760000Y-95485659D01*
X172760001Y-95485659D01*
X172818966Y-95480500D01*
X172995408Y-95465063D01*
X173223663Y-95403903D01*
X173437829Y-95304035D01*
X173631401Y-95168495D01*
X173778602Y-95021293D01*
X173839924Y-94987810D01*
X173909615Y-94992794D01*
X173965549Y-95034665D01*
X173971821Y-95043879D01*
X173975186Y-95049334D01*
X174067288Y-95198656D01*
X174191344Y-95322712D01*
X174340666Y-95414814D01*
X174507203Y-95469999D01*
X174609991Y-95480500D01*
X175910008Y-95480499D01*
X176012797Y-95469999D01*
X176179334Y-95414814D01*
X176328656Y-95322712D01*
X176452712Y-95198656D01*
X176544814Y-95049334D01*
X176599999Y-94882797D01*
X176604177Y-94841896D01*
X176630573Y-94777207D01*
X176687753Y-94737055D01*
X176727535Y-94730500D01*
X182631415Y-94730500D01*
X182698454Y-94750185D01*
X182744209Y-94802989D01*
X182749118Y-94815489D01*
X182769045Y-94875626D01*
X182785186Y-94924335D01*
X182785187Y-94924337D01*
X182877286Y-95073651D01*
X182877289Y-95073655D01*
X183001345Y-95197711D01*
X183123099Y-95272810D01*
X183169821Y-95324756D01*
X183182000Y-95378347D01*
X183182000Y-105629355D01*
X183162315Y-105696394D01*
X183149192Y-105713379D01*
X183138923Y-105724524D01*
X183079020Y-105760488D01*
X183047731Y-105764500D01*
X182494304Y-105764500D01*
X182457432Y-105767401D01*
X182457426Y-105767402D01*
X182299606Y-105813254D01*
X182299603Y-105813255D01*
X182158137Y-105896917D01*
X182158129Y-105896923D01*
X182041923Y-106013129D01*
X182041917Y-106013137D01*
X181958255Y-106154603D01*
X181958254Y-106154606D01*
X181912402Y-106312426D01*
X181912401Y-106312433D01*
X181909500Y-106349300D01*
X181909459Y-106350357D01*
X181887164Y-106416574D01*
X181832608Y-106460225D01*
X181785554Y-106469500D01*
X180034446Y-106469500D01*
X179967407Y-106449815D01*
X179921652Y-106397011D01*
X179910541Y-106350357D01*
X179910500Y-106349300D01*
X179907598Y-106312433D01*
X179907597Y-106312426D01*
X179861745Y-106154606D01*
X179861744Y-106154603D01*
X179861744Y-106154602D01*
X179778081Y-106013135D01*
X179778079Y-106013133D01*
X179778076Y-106013129D01*
X179661870Y-105896923D01*
X179661862Y-105896917D01*
X179520396Y-105813255D01*
X179520393Y-105813254D01*
X179362573Y-105767402D01*
X179362567Y-105767401D01*
X179325696Y-105764500D01*
X179325694Y-105764500D01*
X178570452Y-105764500D01*
X178503413Y-105744815D01*
X178482771Y-105728181D01*
X176510803Y-103756212D01*
X176500980Y-103743950D01*
X176500759Y-103744134D01*
X176495786Y-103738123D01*
X176445364Y-103690773D01*
X176434919Y-103680328D01*
X176424475Y-103669883D01*
X176418986Y-103665625D01*
X176414561Y-103661847D01*
X176380582Y-103629938D01*
X176380580Y-103629936D01*
X176380577Y-103629935D01*
X176363029Y-103620288D01*
X176346763Y-103609604D01*
X176330933Y-103597325D01*
X176288168Y-103578818D01*
X176282922Y-103576248D01*
X176242093Y-103553803D01*
X176242092Y-103553802D01*
X176222693Y-103548822D01*
X176204281Y-103542518D01*
X176185898Y-103534562D01*
X176185892Y-103534560D01*
X176139874Y-103527272D01*
X176134152Y-103526087D01*
X176089021Y-103514500D01*
X176089019Y-103514500D01*
X176068984Y-103514500D01*
X176049586Y-103512973D01*
X176042162Y-103511797D01*
X176029805Y-103509840D01*
X176029804Y-103509840D01*
X175983416Y-103514225D01*
X175977578Y-103514500D01*
X173423748Y-103514500D01*
X173356709Y-103494815D01*
X173331600Y-103473474D01*
X173325873Y-103467114D01*
X173325869Y-103467110D01*
X173172734Y-103355851D01*
X173172729Y-103355848D01*
X172999807Y-103278857D01*
X172999802Y-103278855D01*
X172854001Y-103247865D01*
X172814646Y-103239500D01*
X172625354Y-103239500D01*
X172592897Y-103246398D01*
X172440197Y-103278855D01*
X172440192Y-103278857D01*
X172267270Y-103355848D01*
X172267265Y-103355851D01*
X172114129Y-103467111D01*
X171987466Y-103607785D01*
X171892821Y-103771715D01*
X171892818Y-103771722D01*
X171834327Y-103951740D01*
X171834326Y-103951744D01*
X171814540Y-104140000D01*
X171834326Y-104328256D01*
X171834327Y-104328259D01*
X171892818Y-104508277D01*
X171892821Y-104508284D01*
X171987467Y-104672216D01*
X172089185Y-104785185D01*
X172114129Y-104812888D01*
X172267265Y-104924148D01*
X172267270Y-104924151D01*
X172440192Y-105001142D01*
X172440197Y-105001144D01*
X172625354Y-105040500D01*
X172625355Y-105040500D01*
X172814644Y-105040500D01*
X172814646Y-105040500D01*
X172999803Y-105001144D01*
X173172730Y-104924151D01*
X173325871Y-104812888D01*
X173328788Y-104809647D01*
X173331600Y-104806526D01*
X173391087Y-104769879D01*
X173423748Y-104765500D01*
X175699548Y-104765500D01*
X175766587Y-104785185D01*
X175787229Y-104801819D01*
X176989206Y-106003796D01*
X177022691Y-106065119D01*
X177017707Y-106134811D01*
X177008268Y-106154579D01*
X177008260Y-106154591D01*
X177008254Y-106154606D01*
X176962402Y-106312426D01*
X176962401Y-106312432D01*
X176959500Y-106349304D01*
X176959500Y-106780696D01*
X176962401Y-106817567D01*
X176962402Y-106817573D01*
X177008254Y-106975393D01*
X177008254Y-106975394D01*
X177036041Y-107022380D01*
X177053222Y-107090104D01*
X177031062Y-107156366D01*
X176976596Y-107200129D01*
X176929308Y-107209500D01*
X176725452Y-107209500D01*
X176658413Y-107189815D01*
X176637771Y-107173181D01*
X176198960Y-106734369D01*
X176165475Y-106673046D01*
X176163323Y-106659668D01*
X176145674Y-106491744D01*
X176087179Y-106311716D01*
X175992533Y-106147784D01*
X175865871Y-106007112D01*
X175816035Y-105970904D01*
X175712734Y-105895851D01*
X175712729Y-105895848D01*
X175539807Y-105818857D01*
X175539802Y-105818855D01*
X175394001Y-105787865D01*
X175354646Y-105779500D01*
X175165354Y-105779500D01*
X175132897Y-105786398D01*
X174980197Y-105818855D01*
X174980192Y-105818857D01*
X174807270Y-105895848D01*
X174807265Y-105895851D01*
X174654129Y-106007111D01*
X174527466Y-106147785D01*
X174432821Y-106311715D01*
X174432818Y-106311722D01*
X174374327Y-106491740D01*
X174374326Y-106491744D01*
X174354540Y-106680000D01*
X174374326Y-106868256D01*
X174409137Y-106975394D01*
X174432463Y-107047182D01*
X174434458Y-107117023D01*
X174398378Y-107176856D01*
X174335677Y-107207684D01*
X174314532Y-107209500D01*
X165025453Y-107209500D01*
X164958414Y-107189815D01*
X164937772Y-107173181D01*
X163796818Y-106032227D01*
X163763333Y-105970904D01*
X163760499Y-105944546D01*
X163760499Y-105279998D01*
X163760498Y-105279981D01*
X163749999Y-105177203D01*
X163749998Y-105177200D01*
X163694814Y-105010666D01*
X163602712Y-104861344D01*
X163478656Y-104737288D01*
X163329334Y-104645186D01*
X163270493Y-104625688D01*
X163213051Y-104585916D01*
X163186228Y-104521400D01*
X163185500Y-104507983D01*
X163185500Y-99308732D01*
X163205185Y-99241693D01*
X163257989Y-99195938D01*
X163270495Y-99191026D01*
X163304334Y-99179814D01*
X163453656Y-99087712D01*
X163577712Y-98963656D01*
X163669814Y-98814334D01*
X163724999Y-98647797D01*
X163735500Y-98545009D01*
X163735499Y-97369992D01*
X163724999Y-97267203D01*
X163669814Y-97100666D01*
X163577712Y-96951344D01*
X163453656Y-96827288D01*
X163360888Y-96770069D01*
X163304336Y-96735187D01*
X163304331Y-96735185D01*
X163302862Y-96734698D01*
X163137797Y-96680001D01*
X163137795Y-96680000D01*
X163035010Y-96669500D01*
X162084998Y-96669500D01*
X162084980Y-96669501D01*
X161982203Y-96680000D01*
X161982200Y-96680001D01*
X161815668Y-96735185D01*
X161815663Y-96735187D01*
X161666342Y-96827289D01*
X161542289Y-96951342D01*
X161450187Y-97100663D01*
X161450186Y-97100666D01*
X161395001Y-97267203D01*
X161395001Y-97267204D01*
X161395000Y-97267204D01*
X161384500Y-97369983D01*
X161384500Y-98545001D01*
X161384501Y-98545018D01*
X161395000Y-98647796D01*
X161395001Y-98647799D01*
X161450185Y-98814331D01*
X161450186Y-98814334D01*
X161542288Y-98963656D01*
X161666344Y-99087712D01*
X161815666Y-99179814D01*
X161849500Y-99191025D01*
X161906947Y-99230796D01*
X161933772Y-99295311D01*
X161934500Y-99308732D01*
X161934500Y-104507983D01*
X161914815Y-104575022D01*
X161862011Y-104620777D01*
X161849510Y-104625686D01*
X161790666Y-104645186D01*
X161790663Y-104645187D01*
X161641342Y-104737289D01*
X161517289Y-104861342D01*
X161425187Y-105010663D01*
X161425186Y-105010666D01*
X161370001Y-105177203D01*
X161370001Y-105177204D01*
X161370000Y-105177204D01*
X161359500Y-105279983D01*
X161359500Y-106080001D01*
X161359501Y-106080019D01*
X161370000Y-106182796D01*
X161370001Y-106182799D01*
X161412958Y-106312432D01*
X161425186Y-106349334D01*
X161513022Y-106491740D01*
X161517289Y-106498657D01*
X161610951Y-106592319D01*
X161644436Y-106653642D01*
X161639452Y-106723334D01*
X161610951Y-106767681D01*
X161517289Y-106861342D01*
X161425187Y-107010663D01*
X161425185Y-107010668D01*
X161398863Y-107090104D01*
X161370001Y-107177203D01*
X161370001Y-107177204D01*
X161370000Y-107177204D01*
X161359500Y-107279983D01*
X161359500Y-108080001D01*
X161359501Y-108080019D01*
X161370000Y-108182796D01*
X161370001Y-108182799D01*
X161425185Y-108349331D01*
X161425187Y-108349336D01*
X161448718Y-108387486D01*
X161517288Y-108498656D01*
X161641344Y-108622712D01*
X161790666Y-108714814D01*
X161957203Y-108769999D01*
X162059991Y-108780500D01*
X162724546Y-108780499D01*
X162791585Y-108800183D01*
X162812227Y-108816818D01*
X163012727Y-109017318D01*
X163046212Y-109078641D01*
X163041228Y-109148333D01*
X163012727Y-109192680D01*
X162582226Y-109623181D01*
X162520903Y-109656666D01*
X162494545Y-109659500D01*
X162059998Y-109659500D01*
X162059980Y-109659501D01*
X161957203Y-109670000D01*
X161957200Y-109670001D01*
X161790668Y-109725185D01*
X161790663Y-109725187D01*
X161641342Y-109817289D01*
X161517289Y-109941342D01*
X161425187Y-110090663D01*
X161425186Y-110090666D01*
X161370001Y-110257203D01*
X161370001Y-110257204D01*
X161370000Y-110257204D01*
X161359500Y-110359983D01*
X161359500Y-111160001D01*
X161359501Y-111160019D01*
X161370000Y-111262796D01*
X161370001Y-111262799D01*
X161425185Y-111429331D01*
X161425187Y-111429336D01*
X161517289Y-111578657D01*
X161610951Y-111672319D01*
X161644436Y-111733642D01*
X161639452Y-111803334D01*
X161610951Y-111847681D01*
X161517289Y-111941342D01*
X161425187Y-112090663D01*
X161425185Y-112090668D01*
X161420189Y-112105745D01*
X161370001Y-112257203D01*
X161370001Y-112257204D01*
X161370000Y-112257204D01*
X161359500Y-112359983D01*
X161359500Y-113160001D01*
X160020500Y-113160001D01*
X160020500Y-89024500D01*
X160040185Y-88957461D01*
X160092989Y-88911706D01*
X160144500Y-88900500D01*
X200535500Y-88900500D01*
X200602539Y-88920185D01*
G37*
%TD.AperFunction*%
%TA.AperFunction,NonConductor*%
G36*
X196537025Y-95005710D02*
G01*
X196587721Y-95053789D01*
X196604500Y-95116077D01*
X196604500Y-97923922D01*
X196584815Y-97990961D01*
X196532011Y-98036716D01*
X196462853Y-98046660D01*
X196403593Y-98021191D01*
X196398661Y-98017292D01*
X196398658Y-98017290D01*
X196398656Y-98017288D01*
X196249334Y-97925186D01*
X196082797Y-97870001D01*
X196082795Y-97870000D01*
X195980016Y-97859500D01*
X195980009Y-97859500D01*
X195964452Y-97859500D01*
X195897413Y-97839815D01*
X195851658Y-97787011D01*
X195841714Y-97717853D01*
X195870739Y-97654297D01*
X195876756Y-97647833D01*
X195963792Y-97560797D01*
X195976042Y-97550985D01*
X195975859Y-97550764D01*
X195981866Y-97545792D01*
X195981877Y-97545786D01*
X196012775Y-97512882D01*
X196029227Y-97495364D01*
X196039671Y-97484918D01*
X196050120Y-97474471D01*
X196054379Y-97468978D01*
X196058152Y-97464561D01*
X196090062Y-97430582D01*
X196099713Y-97413024D01*
X196110396Y-97396761D01*
X196122673Y-97380936D01*
X196141185Y-97338153D01*
X196143738Y-97332941D01*
X196166197Y-97292092D01*
X196171180Y-97272680D01*
X196177481Y-97254280D01*
X196185437Y-97235896D01*
X196192729Y-97189852D01*
X196193906Y-97184171D01*
X196205500Y-97139019D01*
X196205500Y-97118983D01*
X196207027Y-97099582D01*
X196210160Y-97079804D01*
X196205775Y-97033415D01*
X196205500Y-97027577D01*
X196205500Y-95211057D01*
X196225185Y-95144018D01*
X196264401Y-95105520D01*
X196398656Y-95022712D01*
X196398660Y-95022707D01*
X196403587Y-95018812D01*
X196468382Y-94992671D01*
X196537025Y-95005710D01*
G37*
%TD.AperFunction*%
%TA.AperFunction,NonConductor*%
G36*
X185637539Y-93300185D02*
G01*
X185683294Y-93352989D01*
X185694500Y-93404500D01*
X185694500Y-94655015D01*
X185705000Y-94757795D01*
X185705001Y-94757797D01*
X185719976Y-94802989D01*
X185760186Y-94924335D01*
X185760187Y-94924337D01*
X185852286Y-95073651D01*
X185852289Y-95073655D01*
X185976344Y-95197710D01*
X185976348Y-95197713D01*
X186125662Y-95289812D01*
X186125664Y-95289813D01*
X186125666Y-95289814D01*
X186292203Y-95344999D01*
X186394992Y-95355500D01*
X186394997Y-95355500D01*
X187420003Y-95355500D01*
X187420008Y-95355500D01*
X187522797Y-95344999D01*
X187689334Y-95289814D01*
X187838655Y-95197711D01*
X187962711Y-95073655D01*
X188054814Y-94924334D01*
X188109999Y-94757797D01*
X188114177Y-94716897D01*
X188140573Y-94652207D01*
X188197753Y-94612055D01*
X188237535Y-94605500D01*
X192407983Y-94605500D01*
X192475022Y-94625185D01*
X192520777Y-94677989D01*
X192525689Y-94690495D01*
X192545186Y-94749333D01*
X192545187Y-94749336D01*
X192562378Y-94777207D01*
X192637288Y-94898656D01*
X192761344Y-95022712D01*
X192910666Y-95114814D01*
X193077203Y-95169999D01*
X193179991Y-95180500D01*
X193980008Y-95180499D01*
X193980016Y-95180498D01*
X193980019Y-95180498D01*
X194036302Y-95174748D01*
X194082797Y-95169999D01*
X194249334Y-95114814D01*
X194398656Y-95022712D01*
X194492319Y-94929049D01*
X194553642Y-94895564D01*
X194623334Y-94900548D01*
X194667681Y-94929049D01*
X194761344Y-95022712D01*
X194895597Y-95105519D01*
X194942321Y-95157465D01*
X194954500Y-95211057D01*
X194954500Y-96749546D01*
X194934815Y-96816585D01*
X194918181Y-96837227D01*
X193932226Y-97823181D01*
X193870903Y-97856666D01*
X193844545Y-97859500D01*
X193179998Y-97859500D01*
X193179980Y-97859501D01*
X193077203Y-97870000D01*
X193077200Y-97870001D01*
X192910668Y-97925185D01*
X192910663Y-97925187D01*
X192761342Y-98017289D01*
X192637289Y-98141342D01*
X192545187Y-98290663D01*
X192545186Y-98290666D01*
X192490001Y-98457203D01*
X192490001Y-98457204D01*
X192490000Y-98457204D01*
X192479500Y-98559983D01*
X192479500Y-99224546D01*
X192459815Y-99291585D01*
X192443181Y-99312227D01*
X185072181Y-106683227D01*
X185010858Y-106716712D01*
X184941166Y-106711728D01*
X184885233Y-106669856D01*
X184860816Y-106604392D01*
X184860500Y-106595546D01*
X184860500Y-106349304D01*
X184857598Y-106312432D01*
X184857597Y-106312426D01*
X184824537Y-106198635D01*
X184824736Y-106128766D01*
X184852420Y-106080017D01*
X188016877Y-102645803D01*
X188071198Y-102613194D01*
X188070718Y-102611715D01*
X188080550Y-102608520D01*
X188228441Y-102560467D01*
X188361877Y-102475786D01*
X188470062Y-102360582D01*
X188473259Y-102354765D01*
X188509040Y-102314177D01*
X188565871Y-102272888D01*
X188692533Y-102132216D01*
X188787179Y-101968284D01*
X188845674Y-101788256D01*
X188865460Y-101600000D01*
X188845674Y-101411744D01*
X188787179Y-101231716D01*
X188692533Y-101067784D01*
X188565871Y-100927112D01*
X188565870Y-100927111D01*
X188412734Y-100815851D01*
X188412729Y-100815848D01*
X188239807Y-100738857D01*
X188239802Y-100738855D01*
X188094001Y-100707865D01*
X188054646Y-100699500D01*
X187865354Y-100699500D01*
X187832897Y-100706398D01*
X187680197Y-100738855D01*
X187680192Y-100738857D01*
X187507270Y-100815848D01*
X187507265Y-100815851D01*
X187354129Y-100927111D01*
X187227466Y-101067785D01*
X187132821Y-101231715D01*
X187132818Y-101231722D01*
X187074327Y-101411739D01*
X187074325Y-101411746D01*
X187073648Y-101418191D01*
X187047058Y-101482804D01*
X187041518Y-101489246D01*
X184898190Y-103815285D01*
X184838285Y-103851246D01*
X184768448Y-103849113D01*
X184710851Y-103809561D01*
X184683780Y-103745149D01*
X184683000Y-103731258D01*
X184683000Y-95378347D01*
X184702685Y-95311308D01*
X184741899Y-95272810D01*
X184863655Y-95197711D01*
X184987711Y-95073655D01*
X185079814Y-94924334D01*
X185134999Y-94757797D01*
X185145500Y-94655008D01*
X185145500Y-93404500D01*
X185165185Y-93337461D01*
X185217989Y-93291706D01*
X185269500Y-93280500D01*
X185570500Y-93280500D01*
X185637539Y-93300185D01*
G37*
%TD.AperFunction*%
%TA.AperFunction,NonConductor*%
G36*
X194623334Y-99980548D02*
G01*
X194667681Y-100009049D01*
X194761344Y-100102712D01*
X194910666Y-100194814D01*
X195077203Y-100249999D01*
X195179991Y-100260500D01*
X195844546Y-100260499D01*
X195911585Y-100280183D01*
X195932227Y-100296818D01*
X196118181Y-100482771D01*
X196151666Y-100544094D01*
X196154500Y-100570452D01*
X196154500Y-108935500D01*
X196134815Y-109002539D01*
X196082011Y-109048294D01*
X196030500Y-109059500D01*
X194904984Y-109059500D01*
X194802204Y-109070000D01*
X194802203Y-109070001D01*
X194635664Y-109125186D01*
X194635662Y-109125187D01*
X194486348Y-109217286D01*
X194486344Y-109217289D01*
X194362289Y-109341344D01*
X194362286Y-109341348D01*
X194270190Y-109490657D01*
X194270185Y-109490668D01*
X194246547Y-109562004D01*
X194206774Y-109619449D01*
X194142258Y-109646272D01*
X194128841Y-109647000D01*
X191478773Y-109647000D01*
X191411734Y-109627315D01*
X191365979Y-109574511D01*
X191356035Y-109505353D01*
X191360842Y-109484682D01*
X191368580Y-109460862D01*
X191385674Y-109408256D01*
X191405460Y-109220000D01*
X191385674Y-109031744D01*
X191327179Y-108851716D01*
X191232533Y-108687784D01*
X191105871Y-108547112D01*
X191105870Y-108547111D01*
X190952734Y-108435851D01*
X190952729Y-108435848D01*
X190779807Y-108358857D01*
X190779802Y-108358855D01*
X190634001Y-108327865D01*
X190594646Y-108319500D01*
X190405354Y-108319500D01*
X190372897Y-108326398D01*
X190220197Y-108358855D01*
X190220192Y-108358857D01*
X190047270Y-108435848D01*
X190047265Y-108435851D01*
X189894130Y-108547110D01*
X189889426Y-108551346D01*
X189826432Y-108581572D01*
X189804455Y-108583175D01*
X185317672Y-108510655D01*
X185250959Y-108489889D01*
X185206064Y-108436353D01*
X185197239Y-108367043D01*
X185227288Y-108303964D01*
X185234799Y-108296273D01*
X185236582Y-108294596D01*
X185236587Y-108294594D01*
X185266299Y-108258676D01*
X185270212Y-108254376D01*
X193227772Y-100296818D01*
X193289095Y-100263333D01*
X193315453Y-100260499D01*
X193980002Y-100260499D01*
X193980008Y-100260499D01*
X194082797Y-100249999D01*
X194249334Y-100194814D01*
X194398656Y-100102712D01*
X194492319Y-100009049D01*
X194553642Y-99975564D01*
X194623334Y-99980548D01*
G37*
%TD.AperFunction*%
%TA.AperFunction,NonConductor*%
G36*
X176996347Y-109750185D02*
G01*
X177042102Y-109802989D01*
X177052046Y-109872147D01*
X177036041Y-109917620D01*
X177008254Y-109964605D01*
X177008254Y-109964606D01*
X176962402Y-110122426D01*
X176962401Y-110122432D01*
X176959500Y-110159304D01*
X176959500Y-110590696D01*
X176962401Y-110627567D01*
X176962402Y-110627573D01*
X176977660Y-110680089D01*
X176977461Y-110749959D01*
X176946265Y-110802365D01*
X175775451Y-111973181D01*
X175714128Y-112006666D01*
X175687770Y-112009500D01*
X163713958Y-112009500D01*
X163646919Y-111989815D01*
X163608420Y-111950598D01*
X163602712Y-111941344D01*
X163509049Y-111847681D01*
X163475564Y-111786358D01*
X163480548Y-111716666D01*
X163509049Y-111672319D01*
X163602712Y-111578656D01*
X163694814Y-111429334D01*
X163749999Y-111262797D01*
X163760500Y-111160009D01*
X163760499Y-110359992D01*
X163752964Y-110286230D01*
X163765734Y-110217538D01*
X163788638Y-110185951D01*
X164207772Y-109766819D01*
X164269095Y-109733334D01*
X164295453Y-109730500D01*
X176929308Y-109730500D01*
X176996347Y-109750185D01*
G37*
%TD.AperFunction*%
%TA.AperFunction,NonConductor*%
G36*
X194195880Y-110917685D02*
G01*
X194241635Y-110970489D01*
X194246547Y-110982996D01*
X194270185Y-111054331D01*
X194270190Y-111054342D01*
X194362286Y-111203651D01*
X194362289Y-111203655D01*
X194486344Y-111327710D01*
X194486348Y-111327713D01*
X194635662Y-111419812D01*
X194635664Y-111419813D01*
X194635666Y-111419814D01*
X194802203Y-111474999D01*
X194904992Y-111485500D01*
X196030500Y-111485500D01*
X196097539Y-111505185D01*
X196143294Y-111557989D01*
X196154500Y-111609500D01*
X196154500Y-111737047D01*
X196134815Y-111804086D01*
X196118181Y-111824728D01*
X195944728Y-111998181D01*
X195883405Y-112031666D01*
X195857047Y-112034500D01*
X194904984Y-112034500D01*
X194802204Y-112045000D01*
X194802203Y-112045001D01*
X194635664Y-112100186D01*
X194635662Y-112100187D01*
X194486348Y-112192286D01*
X194486344Y-112192289D01*
X194362289Y-112316344D01*
X194362286Y-112316348D01*
X194270187Y-112465662D01*
X194270186Y-112465664D01*
X194215001Y-112632203D01*
X194215000Y-112632204D01*
X194204500Y-112734984D01*
X194204500Y-113535500D01*
X194184815Y-113602539D01*
X194132011Y-113648294D01*
X194080500Y-113659500D01*
X187605452Y-113659500D01*
X187538413Y-113639815D01*
X187517771Y-113623181D01*
X185004272Y-111109681D01*
X184970787Y-111048358D01*
X184975771Y-110978666D01*
X185017643Y-110922733D01*
X185083107Y-110898316D01*
X185091953Y-110898000D01*
X194128841Y-110898000D01*
X194195880Y-110917685D01*
G37*
%TD.AperFunction*%
D14*
%TO.P,J1,1,Pin_1*%
%TO.N,+9V*%
X175260000Y-93980000D03*
D15*
%TO.P,J1,2,Pin_2*%
%TO.N,GND*%
X172760000Y-93980000D03*
%TD*%
D20*
%TO.N,+9V*%
X180340000Y-114300000D03*
X187960000Y-101600000D03*
%TO.N,Net-(U1-CV)*%
X172720000Y-104140000D03*
%TO.N,/pin_2*%
X175260000Y-106680000D03*
X190500000Y-109220000D03*
%TO.N,Net-(U1-CV)*%
X175260000Y-116840000D03*
%TD*%
D22*
%TO.N,/pin_2*%
X175260000Y-111760000D02*
X175260000Y-106680000D01*
X178525000Y-115025000D02*
X175260000Y-111760000D01*
X184695000Y-115025000D02*
X178525000Y-115025000D01*
X190500000Y-109220000D02*
X184695000Y-115025000D01*
%TO.N,+9V*%
X187960000Y-106680000D02*
X180340000Y-114300000D01*
X187960000Y-101600000D02*
X187960000Y-106680000D01*
%TO.N,Net-(U1-CV)*%
X172720000Y-114300000D02*
X172720000Y-104140000D01*
X175260000Y-116840000D02*
X172720000Y-114300000D01*
%TD*%
D23*
X170516779Y-126869819D02*
X170516779Y-125869819D01*
X170516779Y-125869819D02*
X170850112Y-126584104D01*
X170850112Y-126584104D02*
X171183445Y-125869819D01*
X171183445Y-125869819D02*
X171183445Y-126869819D01*
X172088207Y-126869819D02*
X172088207Y-126346009D01*
X172088207Y-126346009D02*
X172040588Y-126250771D01*
X172040588Y-126250771D02*
X171945350Y-126203152D01*
X171945350Y-126203152D02*
X171754874Y-126203152D01*
X171754874Y-126203152D02*
X171659636Y-126250771D01*
X172088207Y-126822200D02*
X171992969Y-126869819D01*
X171992969Y-126869819D02*
X171754874Y-126869819D01*
X171754874Y-126869819D02*
X171659636Y-126822200D01*
X171659636Y-126822200D02*
X171612017Y-126726961D01*
X171612017Y-126726961D02*
X171612017Y-126631723D01*
X171612017Y-126631723D02*
X171659636Y-126536485D01*
X171659636Y-126536485D02*
X171754874Y-126488866D01*
X171754874Y-126488866D02*
X171992969Y-126488866D01*
X171992969Y-126488866D02*
X172088207Y-126441247D01*
X172564398Y-126869819D02*
X172564398Y-126203152D01*
X172564398Y-126393628D02*
X172612017Y-126298390D01*
X172612017Y-126298390D02*
X172659636Y-126250771D01*
X172659636Y-126250771D02*
X172754874Y-126203152D01*
X172754874Y-126203152D02*
X172850112Y-126203152D01*
X173612017Y-126822200D02*
X173516779Y-126869819D01*
X173516779Y-126869819D02*
X173326303Y-126869819D01*
X173326303Y-126869819D02*
X173231065Y-126822200D01*
X173231065Y-126822200D02*
X173183446Y-126774580D01*
X173183446Y-126774580D02*
X173135827Y-126679342D01*
X173135827Y-126679342D02*
X173135827Y-126393628D01*
X173135827Y-126393628D02*
X173183446Y-126298390D01*
X173183446Y-126298390D02*
X173231065Y-126250771D01*
X173231065Y-126250771D02*
X173326303Y-126203152D01*
X173326303Y-126203152D02*
X173516779Y-126203152D01*
X173516779Y-126203152D02*
X173612017Y-126250771D01*
X174183446Y-126869819D02*
X174088208Y-126822200D01*
X174088208Y-126822200D02*
X174040589Y-126774580D01*
X174040589Y-126774580D02*
X173992970Y-126679342D01*
X173992970Y-126679342D02*
X173992970Y-126393628D01*
X173992970Y-126393628D02*
X174040589Y-126298390D01*
X174040589Y-126298390D02*
X174088208Y-126250771D01*
X174088208Y-126250771D02*
X174183446Y-126203152D01*
X174183446Y-126203152D02*
X174326303Y-126203152D01*
X174326303Y-126203152D02*
X174421541Y-126250771D01*
X174421541Y-126250771D02*
X174469160Y-126298390D01*
X174469160Y-126298390D02*
X174516779Y-126393628D01*
X174516779Y-126393628D02*
X174516779Y-126679342D01*
X174516779Y-126679342D02*
X174469160Y-126774580D01*
X174469160Y-126774580D02*
X174421541Y-126822200D01*
X174421541Y-126822200D02*
X174326303Y-126869819D01*
X174326303Y-126869819D02*
X174183446Y-126869819D01*
X174992970Y-126822200D02*
X174992970Y-126869819D01*
X174992970Y-126869819D02*
X174945351Y-126965057D01*
X174945351Y-126965057D02*
X174897732Y-127012676D01*
X176183446Y-126869819D02*
X176183446Y-125869819D01*
X176183446Y-125869819D02*
X176754874Y-126869819D01*
X176754874Y-126869819D02*
X176754874Y-125869819D01*
X177659636Y-126869819D02*
X177659636Y-126346009D01*
X177659636Y-126346009D02*
X177612017Y-126250771D01*
X177612017Y-126250771D02*
X177516779Y-126203152D01*
X177516779Y-126203152D02*
X177326303Y-126203152D01*
X177326303Y-126203152D02*
X177231065Y-126250771D01*
X177659636Y-126822200D02*
X177564398Y-126869819D01*
X177564398Y-126869819D02*
X177326303Y-126869819D01*
X177326303Y-126869819D02*
X177231065Y-126822200D01*
X177231065Y-126822200D02*
X177183446Y-126726961D01*
X177183446Y-126726961D02*
X177183446Y-126631723D01*
X177183446Y-126631723D02*
X177231065Y-126536485D01*
X177231065Y-126536485D02*
X177326303Y-126488866D01*
X177326303Y-126488866D02*
X177564398Y-126488866D01*
X177564398Y-126488866D02*
X177659636Y-126441247D01*
X177992970Y-126203152D02*
X178373922Y-126203152D01*
X178135827Y-125869819D02*
X178135827Y-126726961D01*
X178135827Y-126726961D02*
X178183446Y-126822200D01*
X178183446Y-126822200D02*
X178278684Y-126869819D01*
X178278684Y-126869819D02*
X178373922Y-126869819D01*
X178707256Y-126869819D02*
X178707256Y-125869819D01*
X179135827Y-126869819D02*
X179135827Y-126346009D01*
X179135827Y-126346009D02*
X179088208Y-126250771D01*
X179088208Y-126250771D02*
X178992970Y-126203152D01*
X178992970Y-126203152D02*
X178850113Y-126203152D01*
X178850113Y-126203152D02*
X178754875Y-126250771D01*
X178754875Y-126250771D02*
X178707256Y-126298390D01*
X180040589Y-126869819D02*
X180040589Y-126346009D01*
X180040589Y-126346009D02*
X179992970Y-126250771D01*
X179992970Y-126250771D02*
X179897732Y-126203152D01*
X179897732Y-126203152D02*
X179707256Y-126203152D01*
X179707256Y-126203152D02*
X179612018Y-126250771D01*
X180040589Y-126822200D02*
X179945351Y-126869819D01*
X179945351Y-126869819D02*
X179707256Y-126869819D01*
X179707256Y-126869819D02*
X179612018Y-126822200D01*
X179612018Y-126822200D02*
X179564399Y-126726961D01*
X179564399Y-126726961D02*
X179564399Y-126631723D01*
X179564399Y-126631723D02*
X179612018Y-126536485D01*
X179612018Y-126536485D02*
X179707256Y-126488866D01*
X179707256Y-126488866D02*
X179945351Y-126488866D01*
X179945351Y-126488866D02*
X180040589Y-126441247D01*
X180516780Y-126203152D02*
X180516780Y-126869819D01*
X180516780Y-126298390D02*
X180564399Y-126250771D01*
X180564399Y-126250771D02*
X180659637Y-126203152D01*
X180659637Y-126203152D02*
X180802494Y-126203152D01*
X180802494Y-126203152D02*
X180897732Y-126250771D01*
X180897732Y-126250771D02*
X180945351Y-126346009D01*
X180945351Y-126346009D02*
X180945351Y-126869819D01*
X181469161Y-126822200D02*
X181469161Y-126869819D01*
X181469161Y-126869819D02*
X181421542Y-126965057D01*
X181421542Y-126965057D02*
X181373923Y-127012676D01*
X182659637Y-126869819D02*
X182659637Y-125869819D01*
X182659637Y-125869819D02*
X183231065Y-126869819D01*
X183231065Y-126869819D02*
X183231065Y-125869819D01*
X184135827Y-126203152D02*
X184135827Y-127012676D01*
X184135827Y-127012676D02*
X184088208Y-127107914D01*
X184088208Y-127107914D02*
X184040589Y-127155533D01*
X184040589Y-127155533D02*
X183945351Y-127203152D01*
X183945351Y-127203152D02*
X183802494Y-127203152D01*
X183802494Y-127203152D02*
X183707256Y-127155533D01*
X184135827Y-126822200D02*
X184040589Y-126869819D01*
X184040589Y-126869819D02*
X183850113Y-126869819D01*
X183850113Y-126869819D02*
X183754875Y-126822200D01*
X183754875Y-126822200D02*
X183707256Y-126774580D01*
X183707256Y-126774580D02*
X183659637Y-126679342D01*
X183659637Y-126679342D02*
X183659637Y-126393628D01*
X183659637Y-126393628D02*
X183707256Y-126298390D01*
X183707256Y-126298390D02*
X183754875Y-126250771D01*
X183754875Y-126250771D02*
X183850113Y-126203152D01*
X183850113Y-126203152D02*
X184040589Y-126203152D01*
X184040589Y-126203152D02*
X184135827Y-126250771D01*
X184612018Y-126869819D02*
X184612018Y-125869819D01*
X185040589Y-126869819D02*
X185040589Y-126346009D01*
X185040589Y-126346009D02*
X184992970Y-126250771D01*
X184992970Y-126250771D02*
X184897732Y-126203152D01*
X184897732Y-126203152D02*
X184754875Y-126203152D01*
X184754875Y-126203152D02*
X184659637Y-126250771D01*
X184659637Y-126250771D02*
X184612018Y-126298390D01*
X185516780Y-126869819D02*
X185516780Y-126203152D01*
X185516780Y-125869819D02*
X185469161Y-125917438D01*
X185469161Y-125917438D02*
X185516780Y-125965057D01*
X185516780Y-125965057D02*
X185564399Y-125917438D01*
X185564399Y-125917438D02*
X185516780Y-125869819D01*
X185516780Y-125869819D02*
X185516780Y-125965057D01*
X186040589Y-126822200D02*
X186040589Y-126869819D01*
X186040589Y-126869819D02*
X185992970Y-126965057D01*
X185992970Y-126965057D02*
X185945351Y-127012676D01*
X187516779Y-125869819D02*
X187516779Y-126584104D01*
X187516779Y-126584104D02*
X187469160Y-126726961D01*
X187469160Y-126726961D02*
X187373922Y-126822200D01*
X187373922Y-126822200D02*
X187231065Y-126869819D01*
X187231065Y-126869819D02*
X187135827Y-126869819D01*
X188135827Y-126869819D02*
X188040589Y-126822200D01*
X188040589Y-126822200D02*
X187992970Y-126774580D01*
X187992970Y-126774580D02*
X187945351Y-126679342D01*
X187945351Y-126679342D02*
X187945351Y-126393628D01*
X187945351Y-126393628D02*
X187992970Y-126298390D01*
X187992970Y-126298390D02*
X188040589Y-126250771D01*
X188040589Y-126250771D02*
X188135827Y-126203152D01*
X188135827Y-126203152D02*
X188278684Y-126203152D01*
X188278684Y-126203152D02*
X188373922Y-126250771D01*
X188373922Y-126250771D02*
X188421541Y-126298390D01*
X188421541Y-126298390D02*
X188469160Y-126393628D01*
X188469160Y-126393628D02*
X188469160Y-126679342D01*
X188469160Y-126679342D02*
X188421541Y-126774580D01*
X188421541Y-126774580D02*
X188373922Y-126822200D01*
X188373922Y-126822200D02*
X188278684Y-126869819D01*
X188278684Y-126869819D02*
X188135827Y-126869819D01*
X188897732Y-126203152D02*
X188897732Y-126869819D01*
X188897732Y-126298390D02*
X188945351Y-126250771D01*
X188945351Y-126250771D02*
X189040589Y-126203152D01*
X189040589Y-126203152D02*
X189183446Y-126203152D01*
X189183446Y-126203152D02*
X189278684Y-126250771D01*
X189278684Y-126250771D02*
X189326303Y-126346009D01*
X189326303Y-126346009D02*
X189326303Y-126869819D01*
X190231065Y-126869819D02*
X190231065Y-126346009D01*
X190231065Y-126346009D02*
X190183446Y-126250771D01*
X190183446Y-126250771D02*
X190088208Y-126203152D01*
X190088208Y-126203152D02*
X189897732Y-126203152D01*
X189897732Y-126203152D02*
X189802494Y-126250771D01*
X190231065Y-126822200D02*
X190135827Y-126869819D01*
X190135827Y-126869819D02*
X189897732Y-126869819D01*
X189897732Y-126869819D02*
X189802494Y-126822200D01*
X189802494Y-126822200D02*
X189754875Y-126726961D01*
X189754875Y-126726961D02*
X189754875Y-126631723D01*
X189754875Y-126631723D02*
X189802494Y-126536485D01*
X189802494Y-126536485D02*
X189897732Y-126488866D01*
X189897732Y-126488866D02*
X190135827Y-126488866D01*
X190135827Y-126488866D02*
X190231065Y-126441247D01*
X190659637Y-126822200D02*
X190754875Y-126869819D01*
X190754875Y-126869819D02*
X190945351Y-126869819D01*
X190945351Y-126869819D02*
X191040589Y-126822200D01*
X191040589Y-126822200D02*
X191088208Y-126726961D01*
X191088208Y-126726961D02*
X191088208Y-126679342D01*
X191088208Y-126679342D02*
X191040589Y-126584104D01*
X191040589Y-126584104D02*
X190945351Y-126536485D01*
X190945351Y-126536485D02*
X190802494Y-126536485D01*
X190802494Y-126536485D02*
X190707256Y-126488866D01*
X190707256Y-126488866D02*
X190659637Y-126393628D01*
X190659637Y-126393628D02*
X190659637Y-126346009D01*
X190659637Y-126346009D02*
X190707256Y-126250771D01*
X190707256Y-126250771D02*
X190802494Y-126203152D01*
X190802494Y-126203152D02*
X190945351Y-126203152D01*
X190945351Y-126203152D02*
X191040589Y-126250771D01*
X180148095Y-111324819D02*
X180148095Y-112134342D01*
X180148095Y-112134342D02*
X180195714Y-112229580D01*
X180195714Y-112229580D02*
X180243333Y-112277200D01*
X180243333Y-112277200D02*
X180338571Y-112324819D01*
X180338571Y-112324819D02*
X180529047Y-112324819D01*
X180529047Y-112324819D02*
X180624285Y-112277200D01*
X180624285Y-112277200D02*
X180671904Y-112229580D01*
X180671904Y-112229580D02*
X180719523Y-112134342D01*
X180719523Y-112134342D02*
X180719523Y-111324819D01*
X181719523Y-112324819D02*
X181148095Y-112324819D01*
X181433809Y-112324819D02*
X181433809Y-111324819D01*
X181433809Y-111324819D02*
X181338571Y-111467676D01*
X181338571Y-111467676D02*
X181243333Y-111562914D01*
X181243333Y-111562914D02*
X181148095Y-111610533D01*
X194413333Y-97864819D02*
X194080000Y-97388628D01*
X193841905Y-97864819D02*
X193841905Y-96864819D01*
X193841905Y-96864819D02*
X194222857Y-96864819D01*
X194222857Y-96864819D02*
X194318095Y-96912438D01*
X194318095Y-96912438D02*
X194365714Y-96960057D01*
X194365714Y-96960057D02*
X194413333Y-97055295D01*
X194413333Y-97055295D02*
X194413333Y-97198152D01*
X194413333Y-97198152D02*
X194365714Y-97293390D01*
X194365714Y-97293390D02*
X194318095Y-97341009D01*
X194318095Y-97341009D02*
X194222857Y-97388628D01*
X194222857Y-97388628D02*
X193841905Y-97388628D01*
X195270476Y-97198152D02*
X195270476Y-97864819D01*
X195032381Y-96817200D02*
X194794286Y-97531485D01*
X194794286Y-97531485D02*
X195413333Y-97531485D01*
X194413333Y-92784819D02*
X194080000Y-92308628D01*
X193841905Y-92784819D02*
X193841905Y-91784819D01*
X193841905Y-91784819D02*
X194222857Y-91784819D01*
X194222857Y-91784819D02*
X194318095Y-91832438D01*
X194318095Y-91832438D02*
X194365714Y-91880057D01*
X194365714Y-91880057D02*
X194413333Y-91975295D01*
X194413333Y-91975295D02*
X194413333Y-92118152D01*
X194413333Y-92118152D02*
X194365714Y-92213390D01*
X194365714Y-92213390D02*
X194318095Y-92261009D01*
X194318095Y-92261009D02*
X194222857Y-92308628D01*
X194222857Y-92308628D02*
X193841905Y-92308628D01*
X194746667Y-91784819D02*
X195365714Y-91784819D01*
X195365714Y-91784819D02*
X195032381Y-92165771D01*
X195032381Y-92165771D02*
X195175238Y-92165771D01*
X195175238Y-92165771D02*
X195270476Y-92213390D01*
X195270476Y-92213390D02*
X195318095Y-92261009D01*
X195318095Y-92261009D02*
X195365714Y-92356247D01*
X195365714Y-92356247D02*
X195365714Y-92594342D01*
X195365714Y-92594342D02*
X195318095Y-92689580D01*
X195318095Y-92689580D02*
X195270476Y-92737200D01*
X195270476Y-92737200D02*
X195175238Y-92784819D01*
X195175238Y-92784819D02*
X194889524Y-92784819D01*
X194889524Y-92784819D02*
X194794286Y-92737200D01*
X194794286Y-92737200D02*
X194746667Y-92689580D01*
X161364819Y-106846666D02*
X160888628Y-107179999D01*
X161364819Y-107418094D02*
X160364819Y-107418094D01*
X160364819Y-107418094D02*
X160364819Y-107037142D01*
X160364819Y-107037142D02*
X160412438Y-106941904D01*
X160412438Y-106941904D02*
X160460057Y-106894285D01*
X160460057Y-106894285D02*
X160555295Y-106846666D01*
X160555295Y-106846666D02*
X160698152Y-106846666D01*
X160698152Y-106846666D02*
X160793390Y-106894285D01*
X160793390Y-106894285D02*
X160841009Y-106941904D01*
X160841009Y-106941904D02*
X160888628Y-107037142D01*
X160888628Y-107037142D02*
X160888628Y-107418094D01*
X160460057Y-106465713D02*
X160412438Y-106418094D01*
X160412438Y-106418094D02*
X160364819Y-106322856D01*
X160364819Y-106322856D02*
X160364819Y-106084761D01*
X160364819Y-106084761D02*
X160412438Y-105989523D01*
X160412438Y-105989523D02*
X160460057Y-105941904D01*
X160460057Y-105941904D02*
X160555295Y-105894285D01*
X160555295Y-105894285D02*
X160650533Y-105894285D01*
X160650533Y-105894285D02*
X160793390Y-105941904D01*
X160793390Y-105941904D02*
X161364819Y-106513332D01*
X161364819Y-106513332D02*
X161364819Y-105894285D01*
X162279819Y-112153730D02*
X161803628Y-112487063D01*
X162279819Y-112725158D02*
X161279819Y-112725158D01*
X161279819Y-112725158D02*
X161279819Y-112344206D01*
X161279819Y-112344206D02*
X161327438Y-112248968D01*
X161327438Y-112248968D02*
X161375057Y-112201349D01*
X161375057Y-112201349D02*
X161470295Y-112153730D01*
X161470295Y-112153730D02*
X161613152Y-112153730D01*
X161613152Y-112153730D02*
X161708390Y-112201349D01*
X161708390Y-112201349D02*
X161756009Y-112248968D01*
X161756009Y-112248968D02*
X161803628Y-112344206D01*
X161803628Y-112344206D02*
X161803628Y-112725158D01*
X162279819Y-111201349D02*
X162279819Y-111772777D01*
X162279819Y-111487063D02*
X161279819Y-111487063D01*
X161279819Y-111487063D02*
X161422676Y-111582301D01*
X161422676Y-111582301D02*
X161517914Y-111677539D01*
X161517914Y-111677539D02*
X161565533Y-111772777D01*
X173676666Y-101334819D02*
X173676666Y-102049104D01*
X173676666Y-102049104D02*
X173629047Y-102191961D01*
X173629047Y-102191961D02*
X173533809Y-102287200D01*
X173533809Y-102287200D02*
X173390952Y-102334819D01*
X173390952Y-102334819D02*
X173295714Y-102334819D01*
X174676666Y-102334819D02*
X174105238Y-102334819D01*
X174390952Y-102334819D02*
X174390952Y-101334819D01*
X174390952Y-101334819D02*
X174295714Y-101477676D01*
X174295714Y-101477676D02*
X174200476Y-101572914D01*
X174200476Y-101572914D02*
X174105238Y-101620533D01*
X197854819Y-112498094D02*
X196854819Y-112498094D01*
X196854819Y-112498094D02*
X196854819Y-112259999D01*
X196854819Y-112259999D02*
X196902438Y-112117142D01*
X196902438Y-112117142D02*
X196997676Y-112021904D01*
X196997676Y-112021904D02*
X197092914Y-111974285D01*
X197092914Y-111974285D02*
X197283390Y-111926666D01*
X197283390Y-111926666D02*
X197426247Y-111926666D01*
X197426247Y-111926666D02*
X197616723Y-111974285D01*
X197616723Y-111974285D02*
X197711961Y-112021904D01*
X197711961Y-112021904D02*
X197807200Y-112117142D01*
X197807200Y-112117142D02*
X197854819Y-112259999D01*
X197854819Y-112259999D02*
X197854819Y-112498094D01*
X196950057Y-111545713D02*
X196902438Y-111498094D01*
X196902438Y-111498094D02*
X196854819Y-111402856D01*
X196854819Y-111402856D02*
X196854819Y-111164761D01*
X196854819Y-111164761D02*
X196902438Y-111069523D01*
X196902438Y-111069523D02*
X196950057Y-111021904D01*
X196950057Y-111021904D02*
X197045295Y-110974285D01*
X197045295Y-110974285D02*
X197140533Y-110974285D01*
X197140533Y-110974285D02*
X197283390Y-111021904D01*
X197283390Y-111021904D02*
X197854819Y-111593332D01*
X197854819Y-111593332D02*
X197854819Y-110974285D01*
X184681905Y-96254819D02*
X184681905Y-95254819D01*
X184681905Y-95254819D02*
X184920000Y-95254819D01*
X184920000Y-95254819D02*
X185062857Y-95302438D01*
X185062857Y-95302438D02*
X185158095Y-95397676D01*
X185158095Y-95397676D02*
X185205714Y-95492914D01*
X185205714Y-95492914D02*
X185253333Y-95683390D01*
X185253333Y-95683390D02*
X185253333Y-95826247D01*
X185253333Y-95826247D02*
X185205714Y-96016723D01*
X185205714Y-96016723D02*
X185158095Y-96111961D01*
X185158095Y-96111961D02*
X185062857Y-96207200D01*
X185062857Y-96207200D02*
X184920000Y-96254819D01*
X184920000Y-96254819D02*
X184681905Y-96254819D01*
X186205714Y-96254819D02*
X185634286Y-96254819D01*
X185920000Y-96254819D02*
X185920000Y-95254819D01*
X185920000Y-95254819D02*
X185824762Y-95397676D01*
X185824762Y-95397676D02*
X185729524Y-95492914D01*
X185729524Y-95492914D02*
X185634286Y-95540533D01*
X182379580Y-123589166D02*
X182427200Y-123636785D01*
X182427200Y-123636785D02*
X182474819Y-123779642D01*
X182474819Y-123779642D02*
X182474819Y-123874880D01*
X182474819Y-123874880D02*
X182427200Y-124017737D01*
X182427200Y-124017737D02*
X182331961Y-124112975D01*
X182331961Y-124112975D02*
X182236723Y-124160594D01*
X182236723Y-124160594D02*
X182046247Y-124208213D01*
X182046247Y-124208213D02*
X181903390Y-124208213D01*
X181903390Y-124208213D02*
X181712914Y-124160594D01*
X181712914Y-124160594D02*
X181617676Y-124112975D01*
X181617676Y-124112975D02*
X181522438Y-124017737D01*
X181522438Y-124017737D02*
X181474819Y-123874880D01*
X181474819Y-123874880D02*
X181474819Y-123779642D01*
X181474819Y-123779642D02*
X181522438Y-123636785D01*
X181522438Y-123636785D02*
X181570057Y-123589166D01*
X181570057Y-123208213D02*
X181522438Y-123160594D01*
X181522438Y-123160594D02*
X181474819Y-123065356D01*
X181474819Y-123065356D02*
X181474819Y-122827261D01*
X181474819Y-122827261D02*
X181522438Y-122732023D01*
X181522438Y-122732023D02*
X181570057Y-122684404D01*
X181570057Y-122684404D02*
X181665295Y-122636785D01*
X181665295Y-122636785D02*
X181760533Y-122636785D01*
X181760533Y-122636785D02*
X181903390Y-122684404D01*
X181903390Y-122684404D02*
X182474819Y-123255832D01*
X182474819Y-123255832D02*
X182474819Y-122636785D01*
X161169580Y-96686666D02*
X161217200Y-96734285D01*
X161217200Y-96734285D02*
X161264819Y-96877142D01*
X161264819Y-96877142D02*
X161264819Y-96972380D01*
X161264819Y-96972380D02*
X161217200Y-97115237D01*
X161217200Y-97115237D02*
X161121961Y-97210475D01*
X161121961Y-97210475D02*
X161026723Y-97258094D01*
X161026723Y-97258094D02*
X160836247Y-97305713D01*
X160836247Y-97305713D02*
X160693390Y-97305713D01*
X160693390Y-97305713D02*
X160502914Y-97258094D01*
X160502914Y-97258094D02*
X160407676Y-97210475D01*
X160407676Y-97210475D02*
X160312438Y-97115237D01*
X160312438Y-97115237D02*
X160264819Y-96972380D01*
X160264819Y-96972380D02*
X160264819Y-96877142D01*
X160264819Y-96877142D02*
X160312438Y-96734285D01*
X160312438Y-96734285D02*
X160360057Y-96686666D01*
X161264819Y-95734285D02*
X161264819Y-96305713D01*
X161264819Y-96019999D02*
X160264819Y-96019999D01*
X160264819Y-96019999D02*
X160407676Y-96115237D01*
X160407676Y-96115237D02*
X160502914Y-96210475D01*
X160502914Y-96210475D02*
X160550533Y-96305713D01*
D24*
%TO.C,U1*%
X180910000Y-111030000D02*
X178960000Y-111030000D01*
X180910000Y-111030000D02*
X184360000Y-111030000D01*
X180910000Y-105910000D02*
X182860000Y-105910000D01*
X180910000Y-105910000D02*
X178960000Y-105910000D01*
%TO.C,R4*%
X194352936Y-98325000D02*
X194807064Y-98325000D01*
X194352936Y-99795000D02*
X194807064Y-99795000D01*
%TO.C,R3*%
X194352936Y-93245000D02*
X194807064Y-93245000D01*
X194352936Y-94715000D02*
X194807064Y-94715000D01*
%TO.C,R2*%
X161825000Y-106907064D02*
X161825000Y-106452936D01*
X163295000Y-106907064D02*
X163295000Y-106452936D01*
%TO.C,R1*%
X161825000Y-111987064D02*
X161825000Y-111532936D01*
X163295000Y-111987064D02*
X163295000Y-111532936D01*
%TO.C,J1*%
X172440000Y-98990000D02*
X172440000Y-95570000D01*
X171370000Y-99570000D02*
X171370000Y-94570000D01*
X176650000Y-95570000D02*
X171370000Y-95570000D01*
X171370000Y-92370000D02*
X171370000Y-94570000D01*
X172760000Y-99070000D02*
X172440000Y-98990000D01*
X172440000Y-95570000D02*
X172760000Y-95570000D01*
X174090000Y-94570000D02*
X173930000Y-94570000D01*
X175260000Y-92480000D02*
X175560000Y-91880000D01*
X170150000Y-100790000D02*
X170150000Y-92370000D01*
X176650000Y-99570000D02*
X176650000Y-94570000D01*
X177870000Y-99570000D02*
X176650000Y-99570000D01*
X175260000Y-95570000D02*
X175580000Y-95570000D01*
X175560000Y-91880000D02*
X174960000Y-91880000D01*
X175580000Y-95570000D02*
X175580000Y-98990000D01*
X174960000Y-91880000D02*
X175260000Y-92480000D01*
X175260000Y-99070000D02*
X174940000Y-98990000D01*
X176650000Y-92370000D02*
X177870000Y-92370000D01*
X172760000Y-95570000D02*
X173080000Y-95570000D01*
X170150000Y-92370000D02*
X171370000Y-92370000D01*
X177870000Y-100790000D02*
X170150000Y-100790000D01*
X173080000Y-98990000D02*
X172760000Y-99070000D01*
X175580000Y-98990000D02*
X175260000Y-99070000D01*
X177870000Y-92370000D02*
X177870000Y-100790000D01*
X174940000Y-95570000D02*
X175260000Y-95570000D01*
X171370000Y-94570000D02*
X170150000Y-94570000D01*
X176650000Y-94570000D02*
X177870000Y-94570000D01*
X174940000Y-98990000D02*
X174940000Y-95570000D01*
X170150000Y-99570000D02*
X171370000Y-99570000D01*
X176650000Y-94570000D02*
X176650000Y-92370000D01*
X173080000Y-95570000D02*
X173080000Y-98990000D01*
%TO.C,D2*%
X194445000Y-109300000D02*
X194445000Y-113360000D01*
X196715000Y-109300000D02*
X194445000Y-109300000D01*
X196715000Y-113360000D02*
X196715000Y-109300000D01*
%TO.C,D1*%
X187880000Y-92845000D02*
X183820000Y-92845000D01*
X187880000Y-95115000D02*
X187880000Y-92845000D01*
X183820000Y-95115000D02*
X187880000Y-95115000D01*
%TO.C,C2*%
X181075000Y-123161248D02*
X181075000Y-123683752D01*
X179605000Y-123161248D02*
X179605000Y-123683752D01*
%TO.C,C1*%
X161625000Y-99005000D02*
X163495000Y-99005000D01*
X161625000Y-94920000D02*
X161625000Y-99005000D01*
X163495000Y-99005000D02*
X163495000Y-94920000D01*
%TD*%
D25*
X162560000Y-124460000D02*
X165100000Y-124460000D01*
X165100000Y-127000000D01*
X162560000Y-127000000D01*
X162560000Y-124460000D01*
X195580000Y-124460000D02*
X198120000Y-124460000D01*
X198120000Y-127000000D01*
X195580000Y-127000000D01*
X195580000Y-124460000D01*
X160020000Y-88900000D02*
X200660000Y-88900000D01*
X200660000Y-129540000D01*
X160020000Y-129540000D01*
X160020000Y-88900000D01*
M02*
